<mxfile host="65bd71144e" pages="1">
    <diagram id="_i1nu5FhPecFgXTPAHal" name="Page-1">
        <mxGraphModel dx="886" dy="1286" grid="1" gridSize="10" guides="1" tooltips="1" connect="1" arrows="1" fold="1" page="1" pageScale="1" pageWidth="827" pageHeight="1169" background="#ffffff" math="0" shadow="0">
            <root>
                <mxCell id="0"/>
                <mxCell id="1" parent="0"/>
                <mxCell id="5" value="" style="rounded=0;whiteSpace=wrap;html=1;fillColor=#999999;strokeColor=#FFFFFF;fontColor=#ffffff;direction=south;" parent="1" vertex="1">
                    <mxGeometry x="60" y="310" width="470" height="150" as="geometry"/>
                </mxCell>
                <mxCell id="7" value="" style="endArrow=none;dashed=1;html=1;exitX=0.75;exitY=0;exitDx=0;exitDy=0;entryX=0.75;entryY=1;entryDx=0;entryDy=0;strokeColor=#FFFFFF;strokeWidth=4;" parent="1" source="5" target="5" edge="1">
                    <mxGeometry width="50" height="50" relative="1" as="geometry">
                        <mxPoint x="230" y="110" as="sourcePoint"/>
                        <mxPoint x="210" y="240" as="targetPoint"/>
                        <Array as="points"/>
                    </mxGeometry>
                </mxCell>
                <mxCell id="12" value="" style="shape=image;verticalLabelPosition=bottom;labelBackgroundColor=#ffffff;verticalAlign=top;aspect=fixed;imageAspect=0;image=data:image/svg+xml,PHN2ZyB4bWxuczpyZGY9Imh0dHA6Ly93d3cudzMub3JnLzE5OTkvMDIvMjItcmRmLXN5bnRheC1ucyMiIHhtbG5zPSJodHRwOi8vd3d3LnczLm9yZy8yMDAwL3N2ZyIgeG1sbnM6Y2M9Imh0dHA6Ly93ZWIucmVzb3VyY2Uub3JnL2NjLyIgeG1sbnM6eGxpbms9Imh0dHA6Ly93d3cudzMub3JnLzE5OTkveGxpbmsiIHhtbG5zOmRjPSJodHRwOi8vcHVybC5vcmcvZGMvZWxlbWVudHMvMS4xLyIgaWQ9InN2ZzIiIHZpZXdCb3g9IjAgMCA5NjAgNDc2IiB2ZXJzaW9uPSIxLjEiPiYjeGE7IDx0aXRsZSBpZD0idGl0bGUzOTY4Ij5SZWQgQ2FyIC0gVG9wIFZpZXc8L3RpdGxlPiYjeGE7IDxkZWZzIGlkPSJkZWZzNCI+JiN4YTsgIDxsaW5lYXJHcmFkaWVudCBpZD0ibGluZWFyR3JhZGllbnQzNzU5Ij4mI3hhOyAgIDxzdG9wIGlkPSJzdG9wMzc2MSIgc3RvcC1jb2xvcj0iIzFhMWExYSIgb2Zmc2V0PSIwIi8+JiN4YTsgICA8c3RvcCBpZD0ic3RvcDM3NjMiIHN0b3AtY29sb3I9IiNmMzAwMDAiIHN0b3Atb3BhY2l0eT0iMCIgb2Zmc2V0PSIxIi8+JiN4YTsgIDwvbGluZWFyR3JhZGllbnQ+JiN4YTsgIDxsaW5lYXJHcmFkaWVudCBpZD0ibGluZWFyR3JhZGllbnQ0MTQ5IiB5Mj0iODM0LjY4IiB4bGluazpocmVmPSIjbGluZWFyR3JhZGllbnQzNzU5IiBncmFkaWVudFVuaXRzPSJ1c2VyU3BhY2VPblVzZSIgeDI9Ijg0OC4xNiIgZ3JhZGllbnRUcmFuc2Zvcm09InRyYW5zbGF0ZSg4LjMwODUgLTIuNjUxOCkiIHkxPSI4NDIuMyIgeDE9Ijg3MS4zMyIvPiYjeGE7ICA8bGluZWFyR3JhZGllbnQgaWQ9ImxpbmVhckdyYWRpZW50NDE1MyIgeTI9IjUzMy41IiB4bGluazpocmVmPSIjbGluZWFyR3JhZGllbnQzNzU5IiBncmFkaWVudFVuaXRzPSJ1c2VyU3BhY2VPblVzZSIgeDI9IjgxMi4xNCIgZ3JhZGllbnRUcmFuc2Zvcm09Im1hdHJpeCguODkzMzIgMCAwIC44OTMzMiA4MC4zNDkgMzY1LjE1KSIgeTE9IjUzNy41IiB4MT0iODc5LjkiLz4mI3hhOyAgPGxpbmVhckdyYWRpZW50IGlkPSJsaW5lYXJHcmFkaWVudDQxNTUiIHkyPSI1MzEuOTEiIHhsaW5rOmhyZWY9IiNsaW5lYXJHcmFkaWVudDM3NTkiIGdyYWRpZW50VW5pdHM9InVzZXJTcGFjZU9uVXNlIiB4Mj0iODE1LjgyIiBncmFkaWVudFRyYW5zZm9ybT0idHJhbnNsYXRlKDI3LjYyNSAyOTYuNDkpIiB5MT0iNTM3LjUiIHgxPSI4NzkuOSIvPiYjeGE7ICA8bGluZWFyR3JhZGllbnQgaWQ9ImxpbmVhckdyYWRpZW50NDE4NSIgeTI9IjgzNC42OCIgeGxpbms6aHJlZj0iI2xpbmVhckdyYWRpZW50Mzc1OSIgZ3JhZGllbnRVbml0cz0idXNlclNwYWNlT25Vc2UiIHgyPSI4NDguMTYiIGdyYWRpZW50VHJhbnNmb3JtPSJtYXRyaXgoMSAwIDAgLTEgOC4zMDg1IDE0NTIpIiB5MT0iODQyLjMiIHgxPSI4NzEuMzMiLz4mI3hhOyAgPGxpbmVhckdyYWRpZW50IGlkPSJsaW5lYXJHcmFkaWVudDQxODciIHkyPSI1MjguNDIiIHhsaW5rOmhyZWY9IiNsaW5lYXJHcmFkaWVudDM3NTkiIGdyYWRpZW50VW5pdHM9InVzZXJTcGFjZU9uVXNlIiB4Mj0iODc2LjE0IiBncmFkaWVudFRyYW5zZm9ybT0ibWF0cml4KDEgMCAwIC0xIDIxLjQzOCAxMTUxLjUpIiB5MT0iNTI4LjM2IiB4MT0iODg3LjkiLz4mI3hhOyAgPGxpbmVhckdyYWRpZW50IGlkPSJsaW5lYXJHcmFkaWVudDQxODkiIHkyPSI1MzEuOTEiIHhsaW5rOmhyZWY9IiNsaW5lYXJHcmFkaWVudDM3NTkiIGdyYWRpZW50VW5pdHM9InVzZXJTcGFjZU9uVXNlIiB4Mj0iODE1LjgyIiBncmFkaWVudFRyYW5zZm9ybT0ibWF0cml4KDEgMCAwIC0xIDI3LjYyNSAxMTUyLjkpIiB5MT0iNTM3LjUiIHgxPSI4NzkuOSIvPiYjeGE7ICA8bGluZWFyR3JhZGllbnQgaWQ9ImxpbmVhckdyYWRpZW50NDE5MSIgeTI9IjUzNS4zNyIgeGxpbms6aHJlZj0iI2xpbmVhckdyYWRpZW50Mzc1OSIgZ3JhZGllbnRVbml0cz0idXNlclNwYWNlT25Vc2UiIHgyPSI4ODMuNzYiIGdyYWRpZW50VHJhbnNmb3JtPSJtYXRyaXgoMSAwIDAgLTEgMjEuNDM4IDExNTEuNSkiIHkxPSI1NDIuNCIgeDE9Ijg5Ny4yMiIvPiYjeGE7ICA8bGluZWFyR3JhZGllbnQgaWQ9ImxpbmVhckdyYWRpZW50NDE5MyIgeTI9IjUwMS4wOCIgeGxpbms6aHJlZj0iI2xpbmVhckdyYWRpZW50Mzc1OSIgZ3JhZGllbnRVbml0cz0idXNlclNwYWNlT25Vc2UiIHgyPSI4MzUuOTkiIGdyYWRpZW50VHJhbnNmb3JtPSJtYXRyaXgoMSAwIDAgLTEgMjEuNDM4IDExNTEuNSkiIHkxPSI1NTIuMDUiIHgxPSI4ODAuNzEiLz4mI3hhOyAgPGxpbmVhckdyYWRpZW50IGlkPSJsaW5lYXJHcmFkaWVudDQxOTUiIHkyPSI1MjkuNjEiIHhsaW5rOmhyZWY9IiNsaW5lYXJHcmFkaWVudDM3NTkiIGdyYWRpZW50VW5pdHM9InVzZXJTcGFjZU9uVXNlIiB4Mj0iODA1LjI5IiBncmFkaWVudFRyYW5zZm9ybT0ibWF0cml4KC44OTMzMiAwIDAgLS44OTMzMiA5NC4xNTYgMTA4Ny44KSIgeTE9IjUyOC4zNiIgeDE9Ijg4Ny45Ii8+JiN4YTsgIDxsaW5lYXJHcmFkaWVudCBpZD0ibGluZWFyR3JhZGllbnQ0MTk3IiB5Mj0iNTMzLjUiIHhsaW5rOmhyZWY9IiNsaW5lYXJHcmFkaWVudDM3NTkiIGdyYWRpZW50VW5pdHM9InVzZXJTcGFjZU9uVXNlIiB4Mj0iODEyLjE0IiBncmFkaWVudFRyYW5zZm9ybT0ibWF0cml4KC44OTMzMiAwIDAgLS44OTMzMiA4MC4zNDkgMTA4NC4yKSIgeTE9IjUzNy41IiB4MT0iODc5LjkiLz4mI3hhOyAgPGxpbmVhckdyYWRpZW50IGlkPSJsaW5lYXJHcmFkaWVudDQxOTkiIHkyPSI4NjcuNjgiIHhsaW5rOmhyZWY9IiNsaW5lYXJHcmFkaWVudDM3NTkiIGdyYWRpZW50VW5pdHM9InVzZXJTcGFjZU9uVXNlIiB4Mj0iMjA1LjU5IiBncmFkaWVudFRyYW5zZm9ybT0ibWF0cml4KC45OTA0MyAtLjEzNzk5IC0uMTM3OTkgLS45OTA0MyAxNDYuMDUgMTQ4My4zKSIgeTE9Ijg3My4xNCIgeDE9IjIyOS43Ii8+JiN4YTsgIDxsaW5lYXJHcmFkaWVudCBpZD0ibGluZWFyR3JhZGllbnQ0MjAxIiB5Mj0iODcyLjY1IiB4bGluazpocmVmPSIjbGluZWFyR3JhZGllbnQzNzU5IiBncmFkaWVudFVuaXRzPSJ1c2VyU3BhY2VPblVzZSIgeDI9IjIxNi41NiIgZ3JhZGllbnRUcmFuc2Zvcm09Im1hdHJpeCguOTkwNDMgLS4xMzc5OSAtLjEzNzk5IC0uOTkwNDMgMTU2LjMxIDE0ODIpIiB5MT0iODczLjA2IiB4MT0iMjM4LjgzIi8+JiN4YTsgIDxsaW5lYXJHcmFkaWVudCBpZD0ibGluZWFyR3JhZGllbnQ0MjAzIiB5Mj0iNTI4LjQyIiB4bGluazpocmVmPSIjbGluZWFyR3JhZGllbnQzNzU5IiBncmFkaWVudFVuaXRzPSJ1c2VyU3BhY2VPblVzZSIgeDI9Ijg3Ni4xNCIgZ3JhZGllbnRUcmFuc2Zvcm09InRyYW5zbGF0ZSgyMS40MzggMjk3LjkxKSIgeTE9IjUyOC4zNiIgeDE9Ijg4Ny45Ii8+JiN4YTsgIDxsaW5lYXJHcmFkaWVudCBpZD0ibGluZWFyR3JhZGllbnQ0MjA1IiB5Mj0iNTM1LjM3IiB4bGluazpocmVmPSIjbGluZWFyR3JhZGllbnQzNzU5IiBncmFkaWVudFVuaXRzPSJ1c2VyU3BhY2VPblVzZSIgeDI9Ijg4My43NiIgZ3JhZGllbnRUcmFuc2Zvcm09InRyYW5zbGF0ZSgyMS40MzggMjk3LjkxKSIgeTE9IjU0Mi40IiB4MT0iODk3LjIyIi8+JiN4YTsgIDxsaW5lYXJHcmFkaWVudCBpZD0ibGluZWFyR3JhZGllbnQ0MjA3IiB5Mj0iNTAxLjA4IiB4bGluazpocmVmPSIjbGluZWFyR3JhZGllbnQzNzU5IiBncmFkaWVudFVuaXRzPSJ1c2VyU3BhY2VPblVzZSIgeDI9IjgzNS45OSIgZ3JhZGllbnRUcmFuc2Zvcm09InRyYW5zbGF0ZSgyMS40MzggMjk3LjkxKSIgeTE9IjU1Mi4wNSIgeDE9Ijg4MC43MSIvPiYjeGE7ICA8bGluZWFyR3JhZGllbnQgaWQ9ImxpbmVhckdyYWRpZW50NDIwOSIgeTI9IjUyOS42MSIgeGxpbms6aHJlZj0iI2xpbmVhckdyYWRpZW50Mzc1OSIgZ3JhZGllbnRVbml0cz0idXNlclNwYWNlT25Vc2UiIHgyPSI4MDUuMjkiIGdyYWRpZW50VHJhbnNmb3JtPSJtYXRyaXgoLjg5MzMyIDAgMCAuODkzMzIgOTQuMTU2IDM2MS41NykiIHkxPSI1MjguMzYiIHgxPSI4ODcuOSIvPiYjeGE7ICA8bGluZWFyR3JhZGllbnQgaWQ9ImxpbmVhckdyYWRpZW50NDIxMSIgeTI9Ijg2Ny42OCIgeGxpbms6aHJlZj0iI2xpbmVhckdyYWRpZW50Mzc1OSIgZ3JhZGllbnRVbml0cz0idXNlclNwYWNlT25Vc2UiIHgyPSIyMDUuNTkiIGdyYWRpZW50VHJhbnNmb3JtPSJtYXRyaXgoLjk5MDQzIC4xMzc5OSAtLjEzNzk5IC45OTA0MyAxNDYuMDUgLTMzLjg4NSkiIHkxPSI4NzMuMTQiIHgxPSIyMjkuNyIvPiYjeGE7ICA8bGluZWFyR3JhZGllbnQgaWQ9ImxpbmVhckdyYWRpZW50NDIxMyIgeTI9Ijg3Mi42NSIgeGxpbms6aHJlZj0iI2xpbmVhckdyYWRpZW50Mzc1OSIgZ3JhZGllbnRVbml0cz0idXNlclNwYWNlT25Vc2UiIHgyPSIyMTYuNTYiIGdyYWRpZW50VHJhbnNmb3JtPSJtYXRyaXgoLjk5MDQzIC4xMzc5OSAtLjEzNzk5IC45OTA0MyAxNTYuMzEgLTMyLjYwMykiIHkxPSI4NzMuMDYiIHgxPSIyMzguODMiLz4mI3hhOyA8L2RlZnM+JiN4YTsgPGcgaWQ9ImxheWVyMSIgdHJhbnNmb3JtPSJ0cmFuc2xhdGUoLTUyLjkzNyAtNDg2LjY5KSI+JiN4YTsgIDxnIGlkPSJnMzg5MCI+JiN4YTsgICA8cGF0aCBpZD0icGF0aDM4NTUiIGQ9Im02MTAuNTIgNDkzLjY5Yy0xLjUwODYgMC4wMDktNC43MjExIDAuMzA0OTEtNi40Njg3IDAuOTM3NWwtMy41IDEuNSA4LjY1NjIgMzUuOTM4LTEyNC44MSAwLjI4MTI1Yy0yLjQzNjMgMC4wMDUtNC44ODc2LTAuMDE0LTcuMzQzNy0wLjAzMTItNC45MTItMC4wMzQzLTkuODY0OS0wLjEwNDU1LTE0Ljg0NC0wLjIxODc1LTcuMjkyNi0wLjE2NzI4LTE0LjY2OS0wLjQxMjg4LTIyLjA2Mi0wLjcxODc1LTAuMzk1OTEtMC4wMTY0LTAuNzkxMzctMC4wNDU3LTEuMTg3NS0wLjA2MjUtMTQuOTMyLTAuNjMwMTgtMzAuMDA3LTEuNDkxNy00NS4wMzEtMi40Mzc1LTIwLjMyNi0xLjI4MjctNDAuNTItMi43MDc0LTYwLjEyNC0zLjg3NS0xNC41MjgtMC44NjUzLTI4LjczMi0xLjU3OTYtNDIuMzc1LTItOS4zNjkyLTAuMjg4NzMtMTguNDY0LTAuNDU2NTUtMjcuMjUtMC40MDYyNS00LjMxNTggMC4wMjQ3LTguNTY3OCAwLjA5MzMtMTIuNzE5IDAuMjE4NzUtNC4xNTA4IDAuMTI1NDYtOC4zODAxIDAuMzU1My0xMi42NTYgMC42NTYyNS0yLjEzOCAwLjE1MDQ3LTQuMjc3OCAwLjMxMDI0LTYuNDM3NCAwLjUtNi40Njg5IDAuNTY4NC0xMy4wNDUgMS4zMjE0LTE5LjU5NCAyLjE4NzUtMC4wMTAxIDAuMDAxLTAuMDIxMS0wLjAwMS0wLjAzMTIgMC00LjM3MjUgMC41Nzg1OC04LjcxODUgMS4yMjU1LTEzLjA2MiAxLjkwNjItNC4zNDM5IDAuNjgwNzMtOC42NzM0IDEuMzk3OC0xMi45MzcgMi4xNTYyLTQuMjUzNyAwLjc1NjYyLTguNDcwNCAxLjU2NTQtMTIuNTk0IDIuMzc1LTAuMDEgMC4wMDItMC4wMjEyLTAuMDAyLTAuMDMxMiAwLTIuMDY2NCAwLjQwNTg2LTQuMDY5NyAwLjgwNDE3LTYuMDkzNyAxLjIxODgtNi4wNjE0IDEuMjQxNi0xMS45MzQgMi41MTYtMTcuNSAzLjc4MTItMC4wMTAxIDAuMDAyLTAuMDIxMS0wLjAwMi0wLjAzMTIgMC0zLjcxNjUgMC44NDQ5LTcuMjg3MiAxLjY3NTItMTAuNzE5IDIuNS02Ljg2MzggMS42NDg0LTEzLjExNSAzLjIzNDYtMTguNTMxIDQuNjU2Mi04LjEyMzYgMi4xMzI1LTE0LjM4MiAzLjkyNzItMTguMDk0IDUtMi40NzM2IDAuNzE1NzgtMy44MTI1IDEuMTI1LTMuODEyNSAxLjEyNWwtMTMuNjg3IDMuNzVjLTAuOTAyNCAwLjI0ODczLTEuNzc4MSAwLjY5MjktMi42MjUgMS4zMTI1LTAuMjg3NzEgMC4yMTA1LTAuNTYyMzQgMC40MzU5My0wLjg0Mzc0IDAuNjg3NS0xLjA5OTYgMC45Nzk2LTIuMTUxIDIuMjcwNy0zLjE1NjIgMy44NDM4LTAuMDA0NiAwLjAwNyAwLjAwNDYgMC4wMjQzIDAgMC4wMzEyLTAuNTAwMzYgMC43ODQ3My0xLjAyMjUgMS42NDA1LTEuNSAyLjU2MjUtMC4wMDQyIDAuMDA4IDAuMDA0MiAwLjAyMzIgMCAwLjAzMTItMC40Nzc1NyAwLjkyMzctMC45NTExNCAxLjkxNDItMS40MDYyIDIuOTY4OC0wLjAwMzcgMC4wMDkgMC4wMDM3IDAuMDIyMiAwIDAuMDMxMi0zLjY2NyA4LjUwOTUtNi42MiAyMS4xMzEtOC45Mzc0IDM2LjIxOS0wLjAwMTUgMC4wMSAwLjAwMTUgMC4wMjEyIDAgMC4wMzEyLTAuMDM1OTUgMC4yMzQxNi0wLjA1ODEgMC40ODM0Mi0wLjA5Mzc1IDAuNzE4NzUtMC41MDQ2MiAzLjMzMTUtMC45OTIwNCA2Ljc5ODItMS40Mzc1IDEwLjM0NC0wLjAzMDQ4IDAuMjQyNjUtMC4wNjM1NSAwLjQ3NTE5LTAuMDkzNzUgMC43MTg3NS0wLjUwMTU3IDQuMDQzMi0wLjk0NjcyIDguMjAyNS0xLjM3NSAxMi40NjktMC4wMDEgMC4wMSAwLjAwMDk5OSAwLjAyMTEgMCAwLjAzMTItMC4yMTM1NCAyLjEyODQtMC40MjkxMiA0LjI5NDgtMC42MjQ5OSA2LjQ2ODgtMC4wMDA5MjEgMC4wMSAwLjAwMDkyMSAwLjAyMDkgMCAwLjAzMTItMC4xOTU4MSAyLjE3NDMtMC4zODM5NyA0LjM0OTItMC41NjI0OSA2LjU2MjUtMC4wMDA4MjYgMC4wMSAwLjAwMDgyNSAwLjAyMDkgMCAwLjAzMTItMC4zNTc3NSA0LjQzNzYtMC42NzgxNyA4Ljk0NTgtMC45Njg3NCAxMy41LTAuMDAwNjU2IDAuMDEwMSAwLjAwMDY1NSAwLjAyMDkgMCAwLjAzMTItMC44NzI2IDEzLjY4NC0xLjQ1OTYgMjcuNzg5LTEuNzgxMiA0MS41NjItMC4wMDAyNDUgMC4wMTA0IDAuMDAwMjQ0IDAuMDIwNyAwIDAuMDMxMi0wLjIxNDQzIDkuMTg5NC0wLjMxMjYgMTguMjEzLTAuMzEyNiAyNi45MDcgMCAwLjk2NzYzIDAuMDI3NTUgMS45NjI5IDAuMDMxMjUgMi45Mzc1LTAuMDAzNyAwLjk3NDYyLTAuMDMxMjUgMS45Njk5LTAuMDMxMjUgMi45Mzc1IDAgOC42OTMyIDAuMDk4MTYgMTcuNzE3IDAuMzEyNSAyNi45MDYgMC4wMDAyNDQgMC4wMTA1LTAuMDAwMjQ1IDAuMDIwOCAwIDAuMDMxMiAwLjMyMTY1IDEzLjc3NCAwLjkwODY0IDI3Ljg3OCAxLjc4MTIgNDEuNTYyIDAuMDAwNjU1IDAuMDEwMy0wLjAwMDY1NiAwLjAyMTEgMCAwLjAzMTIgMC4yOTA1NyA0LjU1NDIgMC42MTA5OSA5LjA2MjQgMC45Njg3NCAxMy41IDAuMDAwODI1IDAuMDEwMy0wLjAwMDgyNiAwLjAyMTEgMCAwLjAzMTIgMC4xNzg1MiAyLjIxMzMgMC4zNjY2OCA0LjM4ODIgMC41NjI0OSA2LjU2MjUgMC4wMDA5MjEgMC4wMTAzLTAuMDAwOTIxIDAuMDIxMSAwIDAuMDMxMiAwLjE5NTg4IDIuMTc0IDAuNDExNDUgNC4zNDA0IDAuNjI0OTkgNi40Njg4IDAuMDAwOTk5IDAuMDEwMi0wLjAwMSAwLjAyMTEgMCAwLjAzMTIgMC40MjgyNiA0LjI2NjMgMC44NzM0MiA4LjQyNTYgMS4zNzUgMTIuNDY5IDAuMDMwMiAwLjI0MzU2IDAuMDYzMjcgMC40NzYxIDAuMDkzNzUgMC43MTg3NSAwLjQ0NTQ1IDMuNTQ1NiAwLjkzMjg3IDcuMDEyMyAxLjQzNzUgMTAuMzQ0IDAuMDM1NjUgMC4yMzUzMyAwLjA1NzggMC40ODQ1OSAwLjA5Mzc1IDAuNzE4NzUgMC4wMDE1IDAuMDEtMC4wMDE1IDAuMDIxNSAwIDAuMDMxMiAyLjMxNzQgMTUuMDg3IDUuMjcwNCAyNy43MDkgOC45Mzc0IDM2LjIxOSAwLjAwMzcgMC4wMDktMC4wMDM3IDAuMDIyNiAwIDAuMDMxMiAwLjQ1NTA5IDEuMDU0NiAwLjkyODY2IDIuMDQ1IDEuNDA2MiAyLjk2ODggMC4wMDQyIDAuMDA4LTAuMDA0MiAwLjAyMzEgMCAwLjAzMTIgMC40Nzc1MyAwLjkyMjA0IDAuOTk5NjIgMS43Nzc4IDEuNSAyLjU2MjUgMC4wMDQ2IDAuMDA3LTAuMDA0NiAwLjAyNDIgMCAwLjAzMTIgMS4wMDUyIDEuNTczMSAyLjA1NjYgMi44NjQyIDMuMTU2MiAzLjg0MzggMC4yODE0IDAuMjUxNTcgMC41NTYwMyAwLjQ3NyAwLjg0Mzc0IDAuNjg3NSAwLjg0Njg2IDAuNjE5NiAxLjcyMjYgMS4wNjM4IDIuNjI1IDEuMzEyNWwxMy42ODcgMy43NXMxLjMzODggMC40MDkyMiAzLjgxMjUgMS4xMjVjMy43MTExIDEuMDcyOCA5Ljk3IDIuODY3NSAxOC4wOTQgNSA1LjQxNTcgMS40MjE3IDExLjY2NyAzLjAwNzggMTguNTMxIDQuNjU2MiAzLjQzMTQgMC44MjQ4NCA3LjAwMjIgMS42NTUxIDEwLjcxOSAyLjUgMC4wMTAyIDAuMDAyIDAuMDIxMS0wLjAwMiAwLjAzMTIgMCA1LjU2NjEgMS4yNjUyIDExLjQzOCAyLjUzOTYgMTcuNSAzLjc4MTIgMi4wMjQgMC40MTQ1OCA0LjAyNzMgMC44MTI4OSA2LjA5MzcgMS4yMTg4IDAuMDEwMSAwLjAwMiAwLjAyMTItMC4wMDIgMC4wMzEyIDAgNC4xMjMyIDAuODA5NjUgOC4zMzk5IDEuNjE4NCAxMi41OTQgMi4zNzUgNC4yNjQgMC43NTg0MyA4LjU5MzUgMS40NzU1IDEyLjkzNyAyLjE1NjIgNC4zNDM5IDAuNjgwNzMgOC42ODk4IDEuMzI3NyAxMy4wNjIgMS45MDYyIDAuMDEwMiAwLjAwMSAwLjAyMTEtMC4wMDEgMC4wMzEyIDAgNi41NDg2IDAuODY2MTEgMTMuMTI1IDEuNjE5MSAxOS41OTQgMi4xODc1IDIuMTU5NyAwLjE4OTc2IDQuMjk5NCAwLjM0OTUzIDYuNDM3NCAwLjUgNC4yNzYgMC4zMDA5NSA4LjUwNTMgMC41MzA3OSAxMi42NTYgMC42NTYyNSA0LjE1MDggMC4xMjU0NiA4LjQwMjggMC4xOTQwMyAxMi43MTkgMC4yMTg3NSA4Ljc4NTkgMC4wNTAzIDE3Ljg4MS0wLjExNzUyIDI3LjI1LTAuNDA2MjUgMTMuNjQyLTAuNDIwNDMgMjcuODQ3LTEuMTM0NyA0Mi4zNzUtMiAxOS42MDQtMS4xNjc2IDM5Ljc5OC0yLjU5MjMgNjAuMTI0LTMuODc1IDE1LjAyNC0wLjk0NTc4IDMwLjA5OC0xLjgwNzMgNDUuMDMxLTIuNDM3NSAwLjM5NjEyLTAuMDE2OCAwLjc5MTU4LTAuMDQ2MSAxLjE4NzUtMC4wNjI1IDcuMzkzNC0wLjMwNTg3IDE0Ljc3LTAuNTUxNDcgMjIuMDYyLTAuNzE4NzUgNC45Nzg3LTAuMTE0MiA5LjkzMTYtMC4xODQ0NyAxNC44NDQtMC4yMTg3NSAyLjQ1Ni0wLjAxNzIgNC45MDczLTAuMDM2NSA3LjM0MzctMC4wMzEybDEyNC44MSAwLjI4MTI1LTguNjU2MiAzNS45MzggMy41IDEuNWMxLjc0NzYgMC42MzI1OSA0Ljk2MDEgMC45Mjg1MSA2LjQ2ODcgMC45Mzc1IDAuODQ4NiAwLjAwNSAxLjc1NTEtMC4wNzQxIDIuNjg3NS0wLjI1IDAuMzEwNjktMC4wNTg1IDAuNjIzNTItMC4xNDEwNSAwLjkzNzQ5LTAuMjE4NzUgMC4zMDQ1OS0wLjA3NTYgMC42MzI1OC0wLjE1NjY4IDAuOTM3NDktMC4yNSAwLjYyODQ0LTAuMTkzMDYgMS4yNjM1LTAuNDIxNTYgMS44NzUtMC42ODc1IDEuODIxNS0wLjc5MzUxIDMuNTM0Mi0xLjkzMTQgNC43ODEyLTMuMzEyNSAwLjAxLTAuMDEwNyAwLjAyMTctMC4wMjA2IDAuMDMxMi0wLjAzMTIgMC42MjQ4LTAuNjk3OSAxLjExMjMtMS40NTEyIDEuNDY4Ny0yLjI4MTJsMTIuMTU2LTMxLjMxMiAxMDkuOTQgMC4yNWMwLjc0NjkgMC4zNzM5IDEuNDc2MSAwLjc0NTExIDIuMjE4NyAxLjA5MzggMi45NzkyIDEuMzk5NSA1LjkxMSAyLjU5NyA4Ljg0MzYgMy42MjUgMS40NjIzIDAuNTEyNTkgMi45MTc4IDAuOTc1NDkgNC4zNzUgMS40MDYyIDUuMSAxLjUwNzUgMTAuMTg4IDIuNTUxNSAxNS4zNDQgMy4yNSAyLjk0NjIgMC4zOTkzMiA1LjkyNTkgMC42OTM4OCA4LjkzNzQgMC45MDYyNSAxLjUwNTcgMC4xMDYxIDMuMDM0IDAuMTgwMTEgNC41NjI0IDAuMjUgMy4wNTcgMC4xMzk5NCA2LjEzODYgMC4yMTI4MyA5LjMxMjQgMC4yNSA2LjM0NzUgMC4wNzQxIDEyLjk3OSAwIDIwIDAgMTAuNDEgMCAyMC4zMjItMC41MzEyMiAyOS43ODEtMS41NjI1IDMuNzgzNS0wLjQxMjUxIDcuNDkxMS0wLjg5NzQ5IDExLjEyNS0xLjQ2ODggNy4yNjc2LTEuMTQyNSAxNC4yMjgtMi42MTg5IDIwLjkwNi00LjM3NSAxLjY2OTQtMC40MzkwMyAzLjMzNTctMC44OTg3NCA0Ljk2ODctMS4zNzUgNC44OTktMS40Mjg4IDkuNjEyOC0zLjAyNTQgMTQuMTg3LTQuNzgxMiAxLjUyNDgtMC41ODUyNyAzLjA0Mi0xLjE2MDUgNC41MzEyLTEuNzgxMiAyLjk3ODMtMS4yNDE0IDUuODgyLTIuNTU3IDguNzE4Ni0zLjkzNzUgMS40MTgzLTAuNjkwMjcgMi44MzU1LTEuNDAwNiA0LjIxODctMi4xMjUgMi43NjY0LTEuNDQ4OCA1LjQ2NjgtMi45OCA4LjA5MzctNC41NjI1IDEuMzEzNS0wLjc5MTI1IDIuNTk2MS0xLjYxMzUgMy44NzUtMi40Mzc1IDYuMzk0My00LjEyMDEgMTIuMzYzLTguNjI1NSAxNy45MDYtMTMuNTMxIDQuNDI4Ni0zLjkxOTUgOC42MDE1LTguMDc5OCAxMi41LTEyLjQ2OSAwLjAwNS0wLjAwNi0wLjAwNS0wLjAyNTQgMC0wLjAzMTIgMC45NzA0NC0xLjA5MjkgMS45MzctMi4xOTE2IDIuODc1LTMuMzEyNSAwLjAwNS0wLjAwNi0wLjAwNS0wLjAyNTEgMC0wLjAzMTIgMC45Mzc3My0xLjEyMDkgMS44NzU3LTIuMjU3OCAyLjc4MTItMy40MDYyIDAuMDA1LTAuMDA2LTAuMDA1LTAuMDI0OSAwLTAuMDMxMiAyLjcyNTYtMy40NTgyIDUuMzEzMi03LjAxODkgNy43NDk5LTEwLjcxOSAwLjAwNS0wLjAwNy0wLjAwNS0wLjAyNCAwLTAuMDMxMiAwLjgwODgyLTEuMjI4NiAxLjYyODktMi40NjQ0IDIuNDA2Mi0zLjcxODggMC4wMDUtMC4wMDgtMC4wMDUtMC4wMjM4IDAtMC4wMzEyIDIuMzQwNS0zLjc3ODEgNC41NjY4LTcuNjUyNSA2LjYyNDktMTEuNjU2IDAuMDA0LTAuMDA4LTAuMDA0LTAuMDIzMSAwLTAuMDMxMiAwLjY4Mjk5LTEuMzI5MiAxLjM0NzctMi42NzgxIDItNC4wMzEyIDAuMDA0LTAuMDA4LTAuMDA0LTAuMDIyOSAwLTAuMDMxMiAwLjY1MjA0LTEuMzUzMyAxLjMxNi0yLjcxNjkgMS45Mzc1LTQuMDkzOCAwLjAwNC0wLjAwOS0wLjAwNC0wLjAyMjcgMC0wLjAzMTIgMS4yNDY0LTIuNzYyNSAyLjQzOC01LjU1MTcgMy41NjI1LTguNDA2MiAwLjAwNC0wLjAwOS0wLjAwNC0wLjAyMjQgMC0wLjAzMTIgMC41NjAyMy0xLjQyMjkgMS4wOTQ4LTIuODY3NCAxLjYyNS00LjMxMjUgMC4wMDMtMC4wMDktMC4wMDMtMC4wMjIyIDAtMC4wMzEyIDAuNTMwMDItMS40NDUyIDEuMDYyMy0yLjkwOCAxLjU2MjUtNC4zNzUgMC40OTk5OS0xLjQ2NzEgMC45OTg0Mi0yLjk0OSAxLjQ2ODctNC40Mzc1IDAuMDAzLTAuMDA5LTAuMDAzLTAuMDIyIDAtMC4wMzEyIDAuNDcwMTMtMS40ODg2IDAuOTM0MzUtMi45OTA1IDEuMzc1LTQuNSAwLjAwMy0wLjAxLTAuMDAzLTAuMDIxNyAwLTAuMDMxMiAwLjQ0MDQ1LTEuNTA5NiAwLjg3MDA5LTMuMDMyNCAxLjI4MTItNC41NjI1IDAuMDAzLTAuMDEtMC4wMDMtMC4wMjE3IDAtMC4wMzEyIDEuMjM4MS00LjYxMDEgMi4zNjg0LTkuMzA2IDMuMzQzNy0xNC4wOTR2LTAuMDMxMmMwLjMyMzYtMS41ODk0IDAuNjExMi0zLjIwNDQgMC45MDYzLTQuODEyNXYtMC4wMzEyYzIuMDc0Ny0xMS4zMTggMy40NjIxLTIzLjA2MiA0LjE1NjItMzUuMjE5IDAuMDAwNS0wLjAxMDMtMC4wMDA2LTAuMDIxMSAwLTAuMDMxMiAwLjA5OC0xLjcyNzkgMC4xNzg3LTMuNDc1NyAwLjI1LTUuMjE4OCAwLjAwMDQtMC4wMTAzLTAuMDAwNC0wLjAyMTEgMC0wLjAzMTIgMC4xNDI2LTMuNDk2OSAwLjI0NjctNy4wMDcyIDAuMjgxMi0xMC41NjIgMC0wLjAxMDMtMC4wMDAxLTAuMDIxMSAwLTAuMDMxMiAwLjAxNy0xLjc4MyAwLjAxLTMuNTc4IDAtNS4zNzUgMC0wLjYzNTgtMC4wMjItMS4yNzE0LTAuMDMxLTEuOTA2MiAwLjAxLTAuNjM0ODUgMC4wMzEtMS4yNzA0IDAuMDMxLTEuOTA2MiAwLjAxLTEuNzk3IDAuMDE3LTMuNTkyIDAtNS4zNzUtMC4wMDAxLTAuMDEwMiAwLTAuMDIwOSAwLTAuMDMxMi0wLjAzNC0zLjU1NTMtMC4xMzg2LTcuMDY1Ni0wLjI4MTItMTAuNTYyLTAuMDAwNC0wLjAxMDIgMC4wMDA0LTAuMDIwOSAwLTAuMDMxMi0wLjA3MS0xLjc0MzEtMC4xNTItMy40OTA4LTAuMjUtNS4yMTg4LTAuMDAwNi0wLjAxMDIgMC4wMDA1LTAuMDIwOSAwLTAuMDMxMi0wLjY5NDEtMTIuMTU3LTIuMDgxNS0yMy45LTQuMTU2Mi0zNS4yMTl2LTAuMDMxMmMtMC4yOTUxLTEuNjA4MS0wLjU4MjctMy4yMjMxLTAuOTA2My00LjgxMjV2LTAuMDMxMmMtMC45NzUzNy00Ljc4NzgtMi4xMDU2LTkuNDgzNi0zLjM0MzctMTQuMDk0LTAuMDAzLTAuMDEgMC4wMDMtMC4wMjEzIDAtMC4wMzEyLTAuNDExMTUtMS41MzAxLTAuODQwNzktMy4wNTI5LTEuMjgxMi00LjU2MjUtMC4wMDMtMC4wMSAwLjAwMy0wLjAyMTMgMC0wLjAzMTItMC40NDA2My0xLjUwOTUtMC45MDQ4NS0zLjAxMTQtMS4zNzUtNC41LTAuMDAzLTAuMDA5IDAuMDAzLTAuMDIyMyAwLTAuMDMxMi0wLjQ3MDMyLTEuNDg4NS0wLjk2ODc1LTIuOTcwNC0xLjQ2ODctNC40Mzc1LTAuNTAwMTctMS40NjctMS4wMzI1LTIuOTI5OC0xLjU2MjUtNC4zNzUtMC4wMDMtMC4wMDkgMC4wMDMtMC4wMjIzIDAtMC4wMzEyLTAuNTMwMjEtMS40NDUxLTEuMDY0OC0yLjg4OTYtMS42MjUtNC4zMTI1LTAuMDA0LTAuMDA5IDAuMDA0LTAuMDIyMyAwLTAuMDMxMi0xLjEyNDQtMi44NTQ2LTIuMzE2MS01LjY0MzgtMy41NjI1LTguNDA2Mi0wLjAwNC0wLjAwOCAwLjAwNC0wLjAyMjMgMC0wLjAzMTItMC42MjE0OC0xLjM3NjgtMS4yODU0LTIuNzQwNS0xLjkzNzUtNC4wOTM4LTAuMDA0LTAuMDA4IDAuMDA0LTAuMDIzMyAwLTAuMDMxMi0wLjY1MjI0LTEuMzUzMi0xLjMxNy0yLjcwMjEtMi00LjAzMTItMC4wMDQtMC4wMDggMC4wMDQtMC4wMjMzIDAtMC4wMzEyLTIuMDU4Mi00LjAwMzgtNC4yODQ0LTcuODc4Mi02LjYyNDktMTEuNjU2LTAuMDA1LTAuMDA3IDAuMDA1LTAuMDIzMyAwLTAuMDMxMi0wLjc3NzMzLTEuMjU0My0xLjU5NzQtMi40OTAyLTIuNDA2Mi0zLjcxODgtMC4wMDUtMC4wMDcgMC4wMDUtMC4wMjQyIDAtMC4wMzEyLTIuNDM2Ny0zLjY5OTktNS4wMjQzLTcuMjYwNi03Ljc0OTktMTAuNzE5LTAuMDA1LTAuMDA2IDAuMDA1LTAuMDI1MyAwLTAuMDMxMi0wLjkwNTQ5LTEuMTQ4NS0xLjg0MzUtMi4yODUzLTIuNzgxMi0zLjQwNjItMC4wMDUtMC4wMDYgMC4wMDUtMC4wMjUzIDAtMC4wMzEyLTAuOTM4MDEtMS4xMjA5LTEuOTA0NS0yLjIxOTYtMi44NzUtMy4zMTI1LTAuMDA1LTAuMDA2IDAuMDA1LTAuMDI1MyAwLTAuMDMxMi0zLjg5ODMtNC4zODg5LTguMDcxMi04LjU0OTMtMTIuNS0xMi40NjktNS41NDMtNC45MDU4LTExLjUxMi05LjQxMTItMTcuOTA2LTEzLjUzMS0xLjI3ODktMC44MjQwMi0yLjU2MTUtMS42NDYyLTMuODc1LTIuNDM3NS0yLjYyNjktMS41ODI1LTUuMzI3My0zLjExMzctOC4wOTM3LTQuNTYyNS0xLjM4MzItMC43MjQzOS0yLjgwMDQtMS40MzQ3LTQuMjE4Ny0yLjEyNS0yLjgzNjctMS4zODA2LTUuNzQwMy0yLjY5NjEtOC43MTg2LTMuOTM3NS0xLjQ4OTItMC42MjA3MS0zLjAwNjQtMS4xOTYtNC41MzEyLTEuNzgxMi00LjU3NDYtMS43NTU4LTkuMjg4My0zLjM1MjUtMTQuMTg3LTQuNzgxMi0xLjYzMy0wLjQ3NjI2LTMuMjk5My0wLjkzNTk3LTQuOTY4Ny0xLjM3NS02LjY3NzctMS43NTYxLTEzLjYzOC0zLjIzMjUtMjAuOTA2LTQuMzc1LTMuNjMzOC0wLjU3MTI2LTcuMzQxNC0xLjA1NjItMTEuMTI1LTEuNDY4OC05LjQ1ODYtMS4wMzI2LTE5LjM3MS0xLjU2MzgtMjkuNzgxLTEuNTYzOC03LjAyMDQgMC0xMy42NTItMC4wNzQxLTIwIDAtMy4xNzM4IDAuMDM3Mi02LjI1NTQgMC4xMTAwNi05LjMxMjQgMC4yNS0xLjUyODUgMC4wNjk5LTMuMDU2OCAwLjE0MzktNC41NjI0IDAuMjUtMy4wMTE1IDAuMjEyMzctNS45OTEyIDAuNTA2OTMtOC45Mzc0IDAuOTA2MjUtNS4xNTU2IDAuNjk4NDktMTAuMjQ0IDEuNzQyNS0xNS4zNDQgMy4yNS0xLjQ1NzIgMC40MzA3Ni0yLjkxMjcgMC44OTM2Ni00LjM3NSAxLjQwNjItMi45MzI3IDEuMDI4LTUuODY0NSAyLjIyNTUtOC44NDM2IDMuNjI1LTAuNzQyNjcgMC4zNDg2NC0xLjQ3MTggMC43MTk4NS0yLjIxODcgMS4wOTM4bC0xMDkuOTQgMC4yNS0xMi4xNTYtMzEuMzEyYy0wLjM1NjQ0LTAuODMtMC44NDM5My0xLjU4MzQtMS40Njg3LTIuMjgxMi0wLjAxLTAuMDEwNS0wLjAyMTMtMC4wMjA2LTAuMDMxMi0wLjAzMTItMS4yNDctMS4zODExLTIuOTU5Ny0yLjUxOS00Ljc4MTItMy4zMTI1LTAuNjExNDYtMC4yNjU5NC0xLjI0NjUtMC40OTQ0NC0xLjg3NS0wLjY4NzUtMC4zMDQ5MS0wLjA5MzMtMC42MzI5LTAuMTc0NC0wLjkzNzQ5LTAuMjUtMC4zMTQwMi0wLjA3NzctMC42MjY4NS0wLjE2MDI1LTAuOTM3NTQtMC4yMTg3NS0wLjkzMjQtMC4xNzU5LTEuODM4OS0wLjI1NS0yLjY4NzUtMC4yNXoiIGZpbGwtb3BhY2l0eT0iLjk5NjA4IiBzdHJva2U9IiMxOTE5MTkiIHN0cm9rZS13aWR0aD0iMTQiLz4mI3hhOyAgIDxwYXRoIGlkPSJwYXRoMjg1MyIgZmlsbC1vcGFjaXR5PSIuOTk2MDgiIGZpbGw9IiNjYTAwMDAiIGQ9Im02MTAuNTIgNDkzLjY5Yy0xLjUwODYgMC4wMDktNC43MjExIDAuMzA2MTEtNi40Njg3IDAuOTM3NWwtMy41IDEuNSA4LjY1NjIgMzUuODQ0LTEyNC44MSAwLjI4MTI1Yy03Ny45NjMgMC4xNjU0LTE2Ni41Mi0xMS41MDQtMjMyLjkzLTkuNS02Ni40MTIgMi4wMDM3LTE1Mi4xMiAyOC0xNTIuMTIgMjhsLTEzLjY4NyAzLjc4MTJjLTE5LjI1MSA1LjI5NjMtMjUuNzE4IDk3LjM2Ny0yNS43MTggMTY2Ljc4IDAgMS4xMTMgMC4wMjY2NSAyLjI1MzEgMC4wMzEyNSAzLjM3NS0wLjAwNDYgMS4xMjE5LTAuMDMxMjUgMi4yNjItMC4wMzEyNSAzLjM3NSAwIDY5LjQxNCA2LjQ2NzMgMTYxLjQ4IDI1LjcxOCAxNjYuNzhsMTMuNjg3IDMuNzgxMnM4NS43MTEgMjUuOTk2IDE1Mi4xMiAyOGM2Ni40MTIgMi4wMDM3IDE1NC45Ny05LjY2NTQgMjMyLjkzLTkuNWwxMjQuODEgMC4yODEyNS04LjY1NjIgMzUuODQ0IDMuNSAxLjVjMS43NDc2IDAuNjMxMzkgNC45NiAwLjkyODU0IDYuNDY4NyAwLjkzNzUgMC44NDg1OSAwLjAwNSAxLjc1NTEtMC4wNzQ0IDIuNjg3NS0wLjI1IDAuMzEwNy0wLjA1ODQgMC42MjM1Mi0wLjE0MTE5IDAuOTM3NDktMC4yMTg3NSAwLjMwNDU5LTAuMDc1NCAwLjYzMjU5LTAuMTU2ODYgMC45Mzc0OS0wLjI1IDAuNjI4NDQtMC4xOTI2OSAxLjI2MzUtMC40MjIwNiAxLjg3NS0wLjY4NzUgMS44MjE1LTAuNzkyMDEgMy41MzQyLTEuOTAyOCA0Ljc4MTItMy4yODEyIDAuMDEtMC4wMTA3IDAuMDIxNy0wLjAyMDggMC4wMzEyLTAuMDMxMiAwLjYyNDgtMC42OTY1OCAxLjExMjMtMS40NTI4IDEuNDY4Ny0yLjI4MTJsMTIuMTU2LTMxLjI1IDEwOS45NCAwLjI1YzIzLjkgMTEuOTQyIDQ1LjUxMSAxMC43MTkgNzMuNTkzIDEwLjcxOSAxMzMuMjUgMCAxODcuNjMtODYuNTg2IDE4Ny0yMDEuMzggMC0wLjc4MDItMC4wMTktMS41NjU2LTAuMDMxLTIuMzQzOCAwLjAxMi0wLjc3ODExIDAuMDMxLTEuNTYzNiAwLjAzMS0yLjM0MzggMC42MjgyLTExNC43OS01My43NDktMjAxLjM4LTE4Ny0yMDEuMzgtMjguMDgyIDAtNDkuNjkzLTEuMjIzNi03My41OTMgMTAuNzE5bC0xMDkuOTQgMC4yNS0xMi4xNTYtMzEuMjVjLTAuMzU2NDUtMC44Mjg0NC0wLjg0MzkzLTEuNTg0Ny0xLjQ2ODctMi4yODEyLTAuMDEtMC4wMTA0LTAuMDIxMy0wLjAyMDYtMC4wMzEyLTAuMDMxMi0xLjI0Ny0xLjM3ODUtMi45NTk3LTIuNDg5Mi00Ljc4MTItMy4yODEyLTAuNjExNDgtMC4yNjU0NC0xLjI0NjUtMC40OTQ4MS0xLjg3NS0wLjY4NzUtMC4zMDQ5LTAuMDkzMS0wLjYzMjktMC4xNzQ2LTAuOTM3NDktMC4yNS0wLjMxMzk3LTAuMDc3Ni0wLjYyNjc5LTAuMTYwMzUtMC45Mzc0OS0wLjIxODc1LTAuOTMyMzktMC4xNzU2LTEuODM4OS0wLjI1NS0yLjY4NzUtMC4yNXoiLz4mI3hhOyAgIDxwYXRoIGlkPSJwYXRoMzY0MyIgb3BhY2l0eT0iLjkiIGQ9Im00MDAuMzQgODU1LjI0Yy0zMy4zNjQgMC02NS4zMDcgMS44LTk0LjgxMSA1LjA2MjUgMjUuNjYgNDguNzE0IDk3Ljk4NSAzMC4yNjUgMjA1LjU2IDMxLjUzMSA0OS42ODYgMC41ODQ3MSA4OS41NDMgMS44NzkzIDEyMS41MyAyLjM3NS00Ny4xNi0yMy4zMzQtMTMzLjUzLTM4Ljk2OS0yMzIuMjgtMzguOTY5eiIgZmlsbC1vcGFjaXR5PSIuOTk2MDgiIGZpbGw9IiMyNjI2MjYiLz4mI3hhOyAgIDxwYXRoIGlkPSJwYXRoMzY1OCIgb3BhY2l0eT0iLjUiIGQ9Im00MDAuMzQgODU1LjI0Yy0zLjIwNjQgMC02LjM4MzEgMC4wMjk1LTkuNTYyNCAwLjA2MjUgMC44MTgyNSAxNi4xNzEgNi40MjgxIDMwLjI1NyAxNC41OTQgMzguODQ0IDQuNjcxNC0wLjA3NTYgOS40OTUxLTAuMTk2NTUgMTQuNDM3LTAuMzQzNzUtOC41NjU3LTguMTkyMy0xNC41OTMtMjIuMjI4LTE1LjcxOS0zOC41NjItMS4yNTEyLTAuMDA1LTIuNDk0NyAwLTMuNzUgMHoiIGZpbGwtb3BhY2l0eT0iLjk5NjA4Ii8+JiN4YTsgICA8cGF0aCBpZD0icGF0aDM3MDciIHN0eWxlPSJibG9jay1wcm9ncmVzc2lvbjp0Yjt0ZXh0LWluZGVudDowO2NvbG9yOiMwMDAwMDA7dGV4dC10cmFuc2Zvcm06bm9uZSIgZD0ibTk4OS4wMiA4MjcuNS01LjA5MzcgMC41OTM3NWMtMjEuNTQ1IDIuNTEyNy0zNy42ODggMjUuOTc5LTM5LjI4MSA1NC41MzFsLTAuMzc0OTkgNy4xMjUgNS4yNDk5LTQuODQzOGMxNS44ODktMTQuNjggMjguMzAzLTMyLjUwNyAzNy40MDYtNTIuNzVsMi4wOS00LjY1eiIgc3Ryb2tlPSIjMTkxOTE5IiBzdHJva2Utd2lkdGg9IjUiIGZpbGw9IiMyMTIxMjEiLz4mI3hhOyAgIDxwYXRoIGlkPSJwYXRoMzcxNSIgb3BhY2l0eT0iLjUiIHN0cm9rZS1saW5lam9pbj0icm91bmQiIGQ9Im03ODMuNDcgODM4LjVzNzkuNjc3LTIyLjU5NiAxMDUuMzgtMzEuOTgyYzI2LjgzOS05LjgwMTggOTguODU5LTM5LjE0NiA5OC44NTktMzkuMTQ2cy04Ljc0MDkgNDIuNDctMzAuNDgzIDU3LjkxOGMtNzcuMjMgNTQuODctMjMyLjY5IDUzLjg1LTIzMi42OSA1My44NSIgc3Ryb2tlPSIjMjkyOTI5IiBzdHJva2UtbGluZWNhcD0icm91bmQiIHN0cm9rZS13aWR0aD0iNiIgZmlsbD0ibm9uZSIvPiYjeGE7ICAgPHBhdGggaWQ9InBhdGgzNzU3IiBmaWxsPSJ1cmwoI2xpbmVhckdyYWRpZW50NDE0OSkiIGQ9Im04NjkuOTcgODE3Ljg0LTQuNDM3NCAyLjM0MzhjMC45ODkxMiAxLjE1NjggMS43OTU1IDIuNDI4NiAyLjM3NSAzLjg0MzggNC43OTc5IDExLjcxNy0xMC43MzYgMjkuMjM2LTI2Ljg3NSAzNS43ODEtMC41MTY3NSAwLjIwOTU4LTEuODEyOSAwLjg0MDY2LTMuNDA2MiAxLjY1NjJsMTMuNjI1LTMuODc1YzE3LjMwNi04LjQ1NzYgMjcuNDctMjMuMDgyIDIzLTM0LTAuOTE2MTUtMi4yMzczLTIuMzc1Mi00LjE2NjEtNC4yODEyLTUuNzV6Ii8+JiN4YTsgICA8cGF0aCBpZD0icGF0aDM3ODciIGZpbGw9InVybCgjbGluZWFyR3JhZGllbnQ0MjAzKSIgZD0ibTg3OC41NSA4MTMuMzgtNC40Mzc1IDIuMzQzOGMwLjk4OTEzIDEuMTU2OCAxLjc5NTUgMi40Mjg2IDIuMzc1IDMuODQzOCA0Ljc5NzkgMTEuNzE3LTEwLjczNiAyOS4yMzYtMjYuODc1IDM1Ljc4MS0wLjUxNjc2IDAuMjA5NTgtMS44MTI5IDAuODQwNjYtMy40MDYyIDEuNjU2MmwxMy42MjUtMy44NzVjMTcuMzA2LTguNDU3NiAyNy40Ny0yMy4wODIgMjMtMzQtMC45MTYxNS0yLjIzNzMtMi4zNzUyLTQuMTY2MS00LjI4MTItNS43NXoiLz4mI3hhOyAgIDxwYXRoIGlkPSJwYXRoMzc1MiIgZmlsbD0idXJsKCNsaW5lYXJHcmFkaWVudDQxNTUpIiBkPSJtODg0Ljc0IDgxMS45Ni00LjQzNzQgMi4zNDM4YzAuOTg5MTMgMS4xNTY4IDEuNzk1NSAyLjQyODYgMi4zNzUgMy44NDM4IDQuNzk3OSAxMS43MTctMTAuNzM2IDI5LjIzNi0yNi44NzUgMzUuNzgxLTAuNTE2NzUgMC4yMDk1OC0xLjgxMjkgMC44NDA2Ni0zLjQwNjIgMS42NTYybDEzLjYyNS0zLjg3NWMxNy4zMDYtOC40NTc2IDI3LjQ3LTIzLjA4MiAyMy0zNC0wLjkxNjE1LTIuMjM3My0yLjM3NTItNC4xNjYxLTQuMjgxMi01Ljc1eiIvPiYjeGE7ICAgPHBhdGggaWQ9InBhdGgzNzM1IiBmaWxsPSJ1cmwoI2xpbmVhckdyYWRpZW50NDIwNSkiIGQ9Im05MDEuNjUgODA3LjY5LTYuMTg3NCAxLjg0MzhjMC45NjAxNSAxLjcxMjggMS42NTQ1IDMuNTMyMyAyLjAzMTIgNS40Njg4IDMuMTE5NCAxNi4wMzQtMjAuOTYyIDM0LjI4NC00My4wMzEgMzguNS0zLjM5NSAwLjY0ODY0LTI4Ljg4NCA4LjU3Ni0zMi4xNTggOC44MDQ0djQuMTI1bDQxLjQzOS0xMi4xNDhjMjYuMjg1LTUuNDk2MyA0NC45NDktMjIuNDQ4IDQxLjg3NS0zOC4yNS0wLjU5NTY0LTMuMDYxNi0xLjk1Ni01Ljg1OTUtMy45Njg3LTguMzQzOHoiLz4mI3hhOyAgIDxwYXRoIGlkPSJwYXRoMzc4MyIgZmlsbD0idXJsKCNsaW5lYXJHcmFkaWVudDQyMDcpIiBkPSJtOTAxLjY1IDgwNy42OS02LjE4NzQgMS44NDM4YzAuOTYwMTUgMS43MTI4IDEuNjU0NSAzLjUzMjMgMi4wMzEyIDUuNDY4OCAzLjExOTQgMTYuMDM0LTIwLjk2MiAzNC4yODQtNDMuMDMxIDM4LjUtMy4zOTUgMC42NDg2NC0yOC44ODQgOC41NzYtMzIuMTU4IDguODA0NHY0LjEyNWw0MS40MzktMTIuMTQ4YzI2LjI4NS01LjQ5NjMgNDQuOTQ5LTIyLjQ0OCA0MS44NzUtMzguMjUtMC41OTU2NC0zLjA2MTYtMS45NTYtNS44NTk1LTMuOTY4Ny04LjM0Mzh6Ii8+JiN4YTsgICA8cGF0aCBpZD0icGF0aDM3OTkiIGZpbGw9InVybCgjbGluZWFyR3JhZGllbnQ0MjA5KSIgZD0ibTg1Ny4xMiA4MjIuNDYtMy45NjQxIDIuMDkzN2MwLjg4MzYxIDEuMDMzNCAxLjYwNCAyLjE2OTYgMi4xMjE2IDMuNDMzNyA0LjI4NjEgMTAuNDY3LTkuNTkwNiAyNi4xMTctMjQuMDA4IDMxLjk2NC0wLjQ2MTYzIDAuMTg3MjMtMS42MTk1IDAuNzUwOTgtMy4wNDI4IDEuNDc5NmwxMi4xNzEtMy40NjE2YzE1LjQ2LTcuNTU1NCAyNC41NC0yMC42MiAyMC41NDYtMzAuMzczLTAuODE4NDItMS45OTg3LTIuMTIxOC0zLjcyMTYtMy44MjQ1LTUuMTM2NnoiLz4mI3hhOyAgIDxwYXRoIGlkPSJwYXRoMzgwMyIgZmlsbD0idXJsKCNsaW5lYXJHcmFkaWVudDQxNTMpIiBkPSJtODQzLjMyIDgyNi4wMy0zLjk2NDEgMi4wOTM3YzAuODgzNjEgMS4wMzM0IDEuNjA0IDIuMTY5NiAyLjEyMTYgMy40MzM3IDQuMjg2MSAxMC40NjctOS41OTA2IDI2LjExNy0yNC4wMDggMzEuOTY0LTAuNDYxNjIgMC4xODcyMy0xLjYxOTUgMC43NTA5OC0zLjA0MjggMS40Nzk2bDEyLjE3MS0zLjQ2MTZjMTUuNDYtNy41NTU0IDI0LjU0LTIwLjYyIDIwLjU0Ni0zMC4zNzMtMC44MTg0Mi0xLjk5ODctMi4xMjE4LTMuNzIxNi0zLjgyNDUtNS4xMzY2eiIvPiYjeGE7ICAgPHBhdGggaWQ9InJlY3QzODYxIiBmaWxsPSJ1cmwoI2xpbmVhckdyYWRpZW50NDIxMSkiIGQ9Im0yMzMuMjcgODQ1LjcyYzguMjkzLTIuMDIzNCAxNS40ODYtMS40Nzg4IDE5Ljc5NyA1Ljc4NzJsLTIuNDkzNCAxNy44OTdjLTYuODc1MSA2LjE3MzItMTMuNzUgNC45NTA5LTIwLjYyNSAwLjE1NTQzbDMuMzIxMi0yMy44Mzl6Ii8+JiN4YTsgICA8cGF0aCBpZD0icGF0aDM4NjQiIGZpbGw9InVybCgjbGluZWFyR3JhZGllbnQ0MjEzKSIgZD0ibTI1My41NCA4NDguOTljOC4xNTAyLTEuMjEwMiAxNS4xNjctMC41NzI4IDE4Ljg0MyA1LjUwODFsLTIuMzczMSAxNy4wMzRjLTYuNDgzOSAyLjk3NDgtMTIuOTgzIDUuMjA5Ni0xOS42MzEgMC4xNDc5M2wzLjE2MTEtMjIuNjl6Ii8+JiN4YTsgICA8cGF0aCBpZD0icGF0aDQwMjUiIG9wYWNpdHk9Ii45IiBzdHlsZT0iYmxvY2stcHJvZ3Jlc3Npb246dGI7dGV4dC1pbmRlbnQ6MDtjb2xvcjojMDAwMDAwO3RleHQtdHJhbnNmb3JtOm5vbmUiIGQ9Im00MDAuMzQgODUyLjc1Yy0zMy40NTQgMC02NS40OTIgMS43ODk0LTk1LjA5MyA1LjA2MjVsLTMuNjU2MiAwLjQwNjI1IDEuNzE4NyAzLjI1YzYuNjcxMSAxMi42NjQgMTYuNTYyIDIxLjExMyAyOS4wNjIgMjYuNDM4IDEyLjUwMSA1LjMyNDEgMjcuNTcyIDcuNjEyNiA0NS4wOTMgOC40Mzc1IDM1LjA0MiAxLjY0OTggNzkuOTU0LTIuNjMxMiAxMzMuNTktMiA0OS42NTkgMC41ODQzOCA4OS41MDggMS44Nzg3IDEyMS41MyAyLjM3NWwxLjEyNS00Ljc1Yy00Ny44NC0yMy42OC0xMzQuMzQtMzkuMjItMjMzLjM2LTM5LjIyem0wIDVjOTEuMTY5IDAgMTcxLjc1IDEzLjQ3OSAyMjAuMDkgMzMuNzE5LTI5Ljk1Mi0wLjU4MjQxLTY1LjIxMi0xLjYwNi0xMDkuMzEtMi4xMjUtNTMuOTM3LTAuNjM0NzMtOTguOTc2IDMuNjUyMi0xMzMuNCAyLjAzMTItMTcuMjE0LTAuODEwNDYtMzEuNzY3LTMuMTA1NC00My40MDYtOC4wNjI1LTEwLjQ1My00LjQ1MjEtMTguNDg1LTExLjE1NC0yNC41LTIwLjkwNiAyOC4zMDctMi45ODMxIDU4LjczNS00LjY1NjIgOTAuNTMtNC42NTYyeiIgZmlsbD0iIzE5MTkxOSIvPiYjeGE7ICAgPHBhdGggaWQ9InJlY3QyODY0IiBvcGFjaXR5PSIuOSIgZD0ibTI2MC41IDYwNy4zOC03Ny43NDkgMTIuNDY5Yy0yNy4xNSA0LjM1NDItNDguOTQ3IDQ4Ljc3My01MC45OTkgMTA0Ljg0IDIuMDUyMyA1Ni4wNzEgMjMuODQ5IDEwMC40OSA1MC45OTkgMTA0Ljg0bDc3Ljc0OSAxMi40NjljMTMuMjk2IDAgMjQtMTAuNzA0IDI0LTI0di0xODYuNjJjMC0xMy4yOTYtMTAuNzA0LTI0LTI0LTI0eiIgZmlsbC1vcGFjaXR5PSIuOTk2MDgiIHN0cm9rZT0iIzE5MTkxOSIgc3Ryb2tlLXdpZHRoPSI1IiBmaWxsPSIjMjYyNjI2Ii8+JiN4YTsgICA8cGF0aCBpZD0icGF0aDM3MDMiIG9wYWNpdHk9Ii45IiBkPSJtNjkxLjk2IDU3My4xNmMtMi45NjkyIDAtNS44OTMzIDAuMzMyMTUtOC43ODEyIDAuOTY4NzUtMC4wMTA0LTAuMDEtMC4wMjA4LTAuMDIxLTAuMDMxMi0wLjAzMTJsLTYzLjg0MyAxMi4zMTJjLTE3LjcyOCA2LjYwNDctMzIgMTQuMjcyLTMyIDMydjIxMi41NmMwIDE3LjcyOCAxNC4yNzIgMjUuMzk1IDMyIDMybDYzLjg0MyAxMi4zMTJjMC4wMTA1LTAuMDEwMiAwLjAyMDgtMC4wMjExIDAuMDMxMi0wLjAzMTIgMi44ODc5IDAuNjM2NiA1LjgxMiAwLjk2ODc1IDguNzgxMiAwLjk2ODc1IDQ1LjM5NSAwIDgyLjE5OC01Ny4zNjMgODIuMzEyLTE1MS41My0wLjExNDA4LTk0LjE2OS0zNi45MTYtMTUxLjUzLTgyLjMxMi0xNTEuNTN6IiBmaWxsLW9wYWNpdHk9Ii45OTYwOCIgc3Ryb2tlPSIjMTkxOTE5IiBzdHJva2Utd2lkdGg9IjUiIGZpbGw9IiMyNjI2MjYiLz4mI3hhOyAgIDxwYXRoIGlkPSJwYXRoNDE1NyIgb3BhY2l0eT0iLjkiIGQ9Im00MDAuMzQgNTk0LjE1Yy0zMy4zNjQgMC02NS4zMDctMS44LTk0LjgxMS01LjA2MjUgMjUuNjYtNDguNzE0IDk3Ljk4NS0zMC4yNjUgMjA1LjU2LTMxLjUzMSA0OS42ODYtMC41ODQ3MSA4OS41NDMtMS44NzkzIDEyMS41My0yLjM3NS00Ny4xNiAyMy4zMzQtMTMzLjUzIDM4Ljk2OS0yMzIuMjggMzguOTY5eiIgZmlsbC1vcGFjaXR5PSIuOTk2MDgiIGZpbGw9IiMyNjI2MjYiLz4mI3hhOyAgIDxwYXRoIGlkPSJwYXRoNDE1OSIgb3BhY2l0eT0iLjUiIGQ9Im00MDAuMzQgNTk0LjE1Yy0zLjIwNjQgMC02LjM4MzEtMC4wMjk1LTkuNTYyNC0wLjA2MjUgMC44MTgyNS0xNi4xNzEgNi40MjgxLTMwLjI1NyAxNC41OTQtMzguODQ0IDQuNjcxNCAwLjA3NTYgOS40OTUxIDAuMTk2NTUgMTQuNDM3IDAuMzQzNzUtOC41NjU3IDguMTkyMy0xNC41OTMgMjIuMjI4LTE1LjcxOSAzOC41NjItMS4yNTEyIDAuMDA1LTIuNDk0NyAwLTMuNzUgMHoiIGZpbGwtb3BhY2l0eT0iLjk5NjA4Ii8+JiN4YTsgICA8cGF0aCBpZD0icGF0aDQxNjEiIHN0eWxlPSJibG9jay1wcm9ncmVzc2lvbjp0Yjt0ZXh0LWluZGVudDowO2NvbG9yOiMwMDAwMDA7dGV4dC10cmFuc2Zvcm06bm9uZSIgZD0ibTk4OS4wMiA2MjEuODktNS4wOTM3LTAuNTkzNzVjLTIxLjU0NS0yLjUxMjctMzcuNjg4LTI1Ljk3OS0zOS4yODEtNTQuNTMxbC0wLjM3NDk5LTcuMTI1IDUuMjQ5OSA0Ljg0MzhjMTUuODg5IDE0LjY4IDI4LjMwMyAzMi41MDcgMzcuNDA2IDUyLjc1bDIuMDkzNyA0LjY1NjJ6IiBzdHJva2U9IiMxOTE5MTkiIHN0cm9rZS13aWR0aD0iNSIgZmlsbD0iIzIxMjEyMSIvPiYjeGE7ICAgPHBhdGggaWQ9InBhdGg0MTYzIiBvcGFjaXR5PSIuNSIgc3Ryb2tlLWxpbmVqb2luPSJyb3VuZCIgZD0ibTc4My40NyA2MTAuODlzNzkuNjc3IDIyLjU5NiAxMDUuMzggMzEuOTgyYzI2LjgzOSA5LjgwMTggOTguODU5IDM5LjE0NiA5OC44NTkgMzkuMTQ2cy04Ljc0MDktNDIuNDctMzAuNDgzLTU3LjkxOGMtNzcuMjMtNTQuODctMjMyLjY5LTUzLjg2LTIzMi42OS01My44NiIgc3Ryb2tlPSIjMjkyOTI5IiBzdHJva2UtbGluZWNhcD0icm91bmQiIHN0cm9rZS13aWR0aD0iNiIgZmlsbD0ibm9uZSIvPiYjeGE7ICAgPHBhdGggaWQ9InBhdGg0MTY1IiBmaWxsPSJ1cmwoI2xpbmVhckdyYWRpZW50NDE4NSkiIGQ9Im04NjkuOTcgNjMxLjU1LTQuNDM3NC0yLjM0MzhjMC45ODkxMi0xLjE1NjggMS43OTU1LTIuNDI4NiAyLjM3NS0zLjg0MzggNC43OTc5LTExLjcxNy0xMC43MzYtMjkuMjM2LTI2Ljg3NS0zNS43ODEtMC41MTY3NS0wLjIwOTU4LTEuODEyOS0wLjg0MDY2LTMuNDA2Mi0xLjY1NjJsMTMuNjI1IDMuODc1YzE3LjMwNiA4LjQ1NzYgMjcuNDcgMjMuMDgyIDIzIDM0LTAuOTE2MTUgMi4yMzczLTIuMzc1MiA0LjE2NjEtNC4yODEyIDUuNzV6Ii8+JiN4YTsgICA8cGF0aCBpZD0icGF0aDQxNjciIGZpbGw9InVybCgjbGluZWFyR3JhZGllbnQ0MTg3KSIgZD0ibTg3OC41NSA2MzYuMDEtNC40Mzc1LTIuMzQzOGMwLjk4OTEzLTEuMTU2OCAxLjc5NTUtMi40Mjg2IDIuMzc1LTMuODQzOCA0Ljc5NzktMTEuNzE3LTEwLjczNi0yOS4yMzYtMjYuODc1LTM1Ljc4MS0wLjUxNjc2LTAuMjA5NTgtMS44MTI5LTAuODQwNjYtMy40MDYyLTEuNjU2MmwxMy42MjUgMy44NzVjMTcuMzA2IDguNDU3NiAyNy40NyAyMy4wODIgMjMgMzQtMC45MTYxNSAyLjIzNzMtMi4zNzUyIDQuMTY2MS00LjI4MTIgNS43NXoiLz4mI3hhOyAgIDxwYXRoIGlkPSJwYXRoNDE2OSIgZmlsbD0idXJsKCNsaW5lYXJHcmFkaWVudDQxODkpIiBkPSJtODg0Ljc0IDYzNy40Mi00LjQzNzQtMi4zNDM4YzAuOTg5MTMtMS4xNTY4IDEuNzk1NS0yLjQyODYgMi4zNzUtMy44NDM4IDQuNzk3OS0xMS43MTctMTAuNzM2LTI5LjIzNi0yNi44NzUtMzUuNzgxLTAuNTE2NzUtMC4yMDk1OC0xLjgxMjktMC44NDA2Ni0zLjQwNjItMS42NTYybDEzLjYyNSAzLjg3NWMxNy4zMDYgOC40NTc2IDI3LjQ3IDIzLjA4MiAyMyAzNC0wLjkxNjE1IDIuMjM3My0yLjM3NTIgNC4xNjYxLTQuMjgxMiA1Ljc1eiIvPiYjeGE7ICAgPHBhdGggaWQ9InBhdGg0MTcxIiBmaWxsPSJ1cmwoI2xpbmVhckdyYWRpZW50NDE5MSkiIGQ9Im05MDEuNjUgNjQxLjctNi4xODc0LTEuODQzOGMwLjk2MDE1LTEuNzEyOCAxLjY1NDUtMy41MzIzIDIuMDMxMi01LjQ2ODggMy4xMTk0LTE2LjAzNC0yMC45NjItMzQuMjg0LTQzLjAzMS0zOC41LTMuMzk1LTAuNjQ4NjQtMjguODg0LTguNTc2LTMyLjE1OC04LjgwNDR2LTQuMTI1bDQxLjQzOSAxMi4xNDhjMjYuMjg1IDUuNDk2MyA0NC45NDkgMjIuNDQ4IDQxLjg3NSAzOC4yNS0wLjU5NTY0IDMuMDYxNi0xLjk1NiA1Ljg1OTUtMy45Njg3IDguMzQzOHoiLz4mI3hhOyAgIDxwYXRoIGlkPSJwYXRoNDE3MyIgZmlsbD0idXJsKCNsaW5lYXJHcmFkaWVudDQxOTMpIiBkPSJtOTAxLjY1IDY0MS43LTYuMTg3NC0xLjg0MzhjMC45NjAxNS0xLjcxMjggMS42NTQ1LTMuNTMyMyAyLjAzMTItNS40Njg4IDMuMTE5NC0xNi4wMzQtMjAuOTYyLTM0LjI4NC00My4wMzEtMzguNS0zLjM5NS0wLjY0ODY0LTI4Ljg4NC04LjU3Ni0zMi4xNTgtOC44MDQ0di00LjEyNWw0MS40MzkgMTIuMTQ4YzI2LjI4NSA1LjQ5NjMgNDQuOTQ5IDIyLjQ0OCA0MS44NzUgMzguMjUtMC41OTU2NCAzLjA2MTYtMS45NTYgNS44NTk1LTMuOTY4NyA4LjM0Mzh6Ii8+JiN4YTsgICA8cGF0aCBpZD0icGF0aDQxNzUiIGZpbGw9InVybCgjbGluZWFyR3JhZGllbnQ0MTk1KSIgZD0ibTg1Ny4xMiA2MjYuOTMtMy45NjQxLTIuMDkzN2MwLjg4MzYxLTEuMDMzNCAxLjYwNC0yLjE2OTYgMi4xMjE2LTMuNDMzNyA0LjI4NjEtMTAuNDY3LTkuNTkwNi0yNi4xMTctMjQuMDA4LTMxLjk2NC0wLjQ2MTYzLTAuMTg3MjMtMS42MTk1LTAuNzUwOTgtMy4wNDI4LTEuNDc5NmwxMi4xNzEgMy40NjE2YzE1LjQ2IDcuNTU1NCAyNC41NCAyMC42MiAyMC41NDYgMzAuMzczLTAuODE4NDIgMS45OTg3LTIuMTIxOCAzLjcyMTYtMy44MjQ1IDUuMTM2NnoiLz4mI3hhOyAgIDxwYXRoIGlkPSJwYXRoNDE3NyIgZmlsbD0idXJsKCNsaW5lYXJHcmFkaWVudDQxOTcpIiBkPSJtODQzLjMyIDYyMy4zNi0zLjk2NDEtMi4wOTM3YzAuODgzNjEtMS4wMzM0IDEuNjA0LTIuMTY5NiAyLjEyMTYtMy40MzM3IDQuMjg2MS0xMC40NjctOS41OTA2LTI2LjExNy0yNC4wMDgtMzEuOTY0LTAuNDYxNjItMC4xODcyMy0xLjYxOTUtMC43NTA5OC0zLjA0MjgtMS40Nzk2bDEyLjE3MSAzLjQ2MTZjMTUuNDYgNy41NTU0IDI0LjU0IDIwLjYyIDIwLjU0NiAzMC4zNzMtMC44MTg0MiAxLjk5ODctMi4xMjE4IDMuNzIxNi0zLjgyNDUgNS4xMzY2eiIvPiYjeGE7ICAgPHBhdGggaWQ9InBhdGg0MTc5IiBmaWxsPSJ1cmwoI2xpbmVhckdyYWRpZW50NDE5OSkiIGQ9Im0yMzMuMjcgNjAzLjY2YzguMjkzIDIuMDIzNCAxNS40ODYgMS40Nzg4IDE5Ljc5Ny01Ljc4NzJsLTIuNDkzNC0xNy44OTdjLTYuODc1MS02LjE3MzItMTMuNzUtNC45NTA5LTIwLjYyNS0wLjE1NTQzbDMuMzIxMiAyMy44Mzl6Ii8+JiN4YTsgICA8cGF0aCBpZD0icGF0aDQxODEiIGZpbGw9InVybCgjbGluZWFyR3JhZGllbnQ0MjAxKSIgZD0ibTI1My41NCA2MDAuNGM4LjE1MDIgMS4yMTAyIDE1LjE2NyAwLjU3MjggMTguODQzLTUuNTA4MWwtMi4zNzMxLTE3LjAzNGMtNi40ODM5LTIuOTc0OC0xMi45ODMtNS4yMDk2LTE5LjYzMS0wLjE0NzkzbDMuMTYxMSAyMi42OXoiLz4mI3hhOyAgIDxwYXRoIGlkPSJwYXRoNDE4MyIgb3BhY2l0eT0iLjkiIHN0eWxlPSJibG9jay1wcm9ncmVzc2lvbjp0Yjt0ZXh0LWluZGVudDowO2NvbG9yOiMwMDAwMDA7dGV4dC10cmFuc2Zvcm06bm9uZSIgZD0ibTQwMC4zNCA1OTYuNjRjLTMzLjQ1NCAwLTY1LjQ5Mi0xLjc4OTQtOTUuMDkzLTUuMDYyNWwtMy42NTYyLTAuNDA2MjUgMS43MTg3LTMuMjVjNi42NzExLTEyLjY2NCAxNi41NjItMjEuMTEzIDI5LjA2Mi0yNi40MzggMTIuNTAxLTUuMzI0MSAyNy41NzItNy42MTI2IDQ1LjA5My04LjQzNzUgMzUuMDQyLTEuNjQ5OCA3OS45NTQgMi42MzEyIDEzMy41OSAyIDQ5LjY1OS0wLjU4NDM4IDg5LjUwOC0xLjg3ODcgMTIxLjUzLTIuMzc1bDEuMTI1IDQuNzVjLTQ3Ljg0OSAyMy42NzUtMTM0LjM2IDM5LjIxOS0yMzMuMzcgMzkuMjE5em0wLTVjOTEuMTY5IDAgMTcxLjc1LTEzLjQ3OSAyMjAuMDktMzMuNzE5LTI5Ljk1MiAwLjU4MjQxLTY1LjIxMiAxLjYwNi0xMDkuMzEgMi4xMjUtNTMuOTM3IDAuNjM0NzMtOTguOTc2LTMuNjUyMi0xMzMuNC0yLjAzMTItMTcuMjE0IDAuODEwNDYtMzEuNzY3IDMuMTA1NC00My40MDYgOC4wNjI1LTEwLjQ1MyA0LjQ1MjEtMTguNDg1IDExLjE1NC0yNC41IDIwLjkwNiAyOC4zMDcgMi45ODMxIDU4LjczNSA0LjY1NjIgOTAuNTMgNC42NTYyeiIgZmlsbD0iIzE5MTkxOSIvPiYjeGE7ICA8L2c+JiN4YTsgPC9nPiYjeGE7IDxtZXRhZGF0YT4mI3hhOyAgPHJkZjpSREY+JiN4YTsgICA8Y2M6V29yaz4mI3hhOyAgICA8ZGM6Zm9ybWF0PmltYWdlL3N2Zyt4bWw8L2RjOmZvcm1hdD4mI3hhOyAgICA8ZGM6dHlwZSByZGY6cmVzb3VyY2U9Imh0dHA6Ly9wdXJsLm9yZy9kYy9kY21pdHlwZS9TdGlsbEltYWdlIi8+JiN4YTsgICAgPGNjOmxpY2Vuc2UgcmRmOnJlc291cmNlPSJodHRwOi8vY3JlYXRpdmVjb21tb25zLm9yZy9saWNlbnNlcy9wdWJsaWNkb21haW4vIi8+JiN4YTsgICAgPGRjOnB1Ymxpc2hlcj4mI3hhOyAgICAgPGNjOkFnZW50IHJkZjphYm91dD0iaHR0cDovL29wZW5jbGlwYXJ0Lm9yZy8iPiYjeGE7ICAgICAgPGRjOnRpdGxlPk9wZW5jbGlwYXJ0PC9kYzp0aXRsZT4mI3hhOyAgICAgPC9jYzpBZ2VudD4mI3hhOyAgICA8L2RjOnB1Ymxpc2hlcj4mI3hhOyAgIDwvY2M6V29yaz4mI3hhOyAgIDxjYzpMaWNlbnNlIHJkZjphYm91dD0iaHR0cDovL2NyZWF0aXZlY29tbW9ucy5vcmcvbGljZW5zZXMvcHVibGljZG9tYWluLyI+JiN4YTsgICAgPGNjOnBlcm1pdHMgcmRmOnJlc291cmNlPSJodHRwOi8vY3JlYXRpdmVjb21tb25zLm9yZy9ucyNSZXByb2R1Y3Rpb24iLz4mI3hhOyAgICA8Y2M6cGVybWl0cyByZGY6cmVzb3VyY2U9Imh0dHA6Ly9jcmVhdGl2ZWNvbW1vbnMub3JnL25zI0Rpc3RyaWJ1dGlvbiIvPiYjeGE7ICAgIDxjYzpwZXJtaXRzIHJkZjpyZXNvdXJjZT0iaHR0cDovL2NyZWF0aXZlY29tbW9ucy5vcmcvbnMjRGVyaXZhdGl2ZVdvcmtzIi8+JiN4YTsgICA8L2NjOkxpY2Vuc2U+JiN4YTsgIDwvcmRmOlJERj4mI3hhOyA8L21ldGFkYXRhPiYjeGE7PC9zdmc+;" parent="1" vertex="1">
                    <mxGeometry x="374" y="321" width="79" height="39" as="geometry"/>
                </mxCell>
                <mxCell id="14" value="" style="endArrow=classic;html=1;strokeColor=#FF8000;strokeWidth=3;exitX=1;exitY=0.5;exitDx=0;exitDy=0;" parent="1" source="8" edge="1">
                    <mxGeometry width="50" height="50" relative="1" as="geometry">
                        <mxPoint x="240" y="340.5" as="sourcePoint"/>
                        <mxPoint x="491" y="390" as="targetPoint"/>
                        <Array as="points">
                            <mxPoint x="260" y="341"/>
                            <mxPoint x="290" y="350"/>
                            <mxPoint x="320" y="380"/>
                            <mxPoint x="350" y="390"/>
                            <mxPoint x="380" y="390"/>
                            <mxPoint x="461" y="390"/>
                        </Array>
                    </mxGeometry>
                </mxCell>
                <mxCell id="16" value="" style="ellipse;whiteSpace=wrap;html=1;strokeColor=none;fillColor=#020203;" parent="1" vertex="1">
                    <mxGeometry x="356" y="385" width="10" height="10" as="geometry"/>
                </mxCell>
                <mxCell id="26" value="" style="ellipse;whiteSpace=wrap;html=1;strokeColor=none;fillColor=#020203;" parent="1" vertex="1">
                    <mxGeometry x="252" y="336" width="10" height="10" as="geometry"/>
                </mxCell>
                <mxCell id="29" value="" style="rounded=0;whiteSpace=wrap;html=1;strokeColor=#3333FF;fillColor=none;rotation=1;" parent="1" vertex="1">
                    <mxGeometry x="337" y="370.5" width="80" height="39" as="geometry"/>
                </mxCell>
                <mxCell id="41" value="" style="endArrow=none;html=1;strokeColor=#020203;strokeWidth=2;" parent="1" edge="1" source="42">
                    <mxGeometry width="50" height="50" relative="1" as="geometry">
                        <mxPoint x="361" y="291" as="sourcePoint"/>
                        <mxPoint x="361" y="385" as="targetPoint"/>
                    </mxGeometry>
                </mxCell>
                <mxCell id="42" value="merge end point" style="text;html=1;resizable=0;points=[];autosize=1;align=left;verticalAlign=top;spacingTop=-4;fontColor=#050505;fontSize=14;" parent="1" vertex="1">
                    <mxGeometry x="280" y="270" width="120" height="20" as="geometry"/>
                </mxCell>
                <mxCell id="43" value="merge start point" style="text;html=1;resizable=0;points=[];autosize=1;align=left;verticalAlign=top;spacingTop=-4;fontColor=#050505;fontSize=14;" parent="1" vertex="1">
                    <mxGeometry x="150" y="270" width="120" height="20" as="geometry"/>
                </mxCell>
                <mxCell id="45" value="" style="endArrow=none;html=1;fontColor=#050505;strokeColor=#050505;" edge="1" parent="1">
                    <mxGeometry width="50" height="50" relative="1" as="geometry">
                        <mxPoint x="361" y="395" as="sourcePoint"/>
                        <mxPoint x="361" y="520" as="targetPoint"/>
                    </mxGeometry>
                </mxCell>
                <mxCell id="46" value="" style="endArrow=none;html=1;fontColor=#050505;strokeColor=#050505;" edge="1" parent="1">
                    <mxGeometry width="50" height="50" relative="1" as="geometry">
                        <mxPoint x="120" y="341" as="sourcePoint"/>
                        <mxPoint x="120" y="520" as="targetPoint"/>
                    </mxGeometry>
                </mxCell>
                <mxCell id="8" value="" style="shape=image;verticalLabelPosition=bottom;labelBackgroundColor=#ffffff;verticalAlign=top;aspect=fixed;imageAspect=0;image=data:image/svg+xml,PHN2ZyB4bWxuczpkYz0iaHR0cDovL3B1cmwub3JnL2RjL2VsZW1lbnRzLzEuMS8iIHhtbG5zOmNjPSJodHRwOi8vY3JlYXRpdmVjb21tb25zLm9yZy9ucyMiIHhtbG5zOnJkZj0iaHR0cDovL3d3dy53My5vcmcvMTk5OS8wMi8yMi1yZGYtc3ludGF4LW5zIyIgeG1sbnM6c3ZnPSJodHRwOi8vd3d3LnczLm9yZy8yMDAwL3N2ZyIgeG1sbnM9Imh0dHA6Ly93d3cudzMub3JnLzIwMDAvc3ZnIiB4bWxuczp4bGluaz0iaHR0cDovL3d3dy53My5vcmcvMTk5OS94bGluayIgdmVyc2lvbj0iMS4xIiB3aWR0aD0iMTAwJSIgaGVpZ2h0PSIxMDAlIiB2aWV3Qm94PSIwIDAgOTYwIDQ3NiIgaWQ9InN2ZzIiPiYjeGE7ICA8dGl0bGUgaWQ9InRpdGxlMzk2OCI+UmVkIENhciAtIFRvcCBWaWV3PC90aXRsZT4mI3hhOyAgPGRlZnMgaWQ9ImRlZnM0Ij4mI3hhOyAgICA8bGluZWFyR3JhZGllbnQgaWQ9ImxpbmVhckdyYWRpZW50Mzc1OSI+JiN4YTsgICAgICA8c3RvcCBpZD0ic3RvcDM3NjEiIHN0eWxlPSJzdG9wLWNvbG9yOiMxYTFhMWE7c3RvcC1vcGFjaXR5OjEiIG9mZnNldD0iMCIvPiYjeGE7ICAgICAgPHN0b3AgaWQ9InN0b3AzNzYzIiBzdHlsZT0ic3RvcC1jb2xvcjojMDAwMDAwO3N0b3Atb3BhY2l0eTowIiBvZmZzZXQ9IjEiLz4mI3hhOyAgICA8L2xpbmVhckdyYWRpZW50PiYjeGE7ICAgIDxsaW5lYXJHcmFkaWVudCB4MT0iODcxLjMzMDAyIiB5MT0iODQyLjI5OTk5IiB4Mj0iODQ4LjE1OTk3IiB5Mj0iODM0LjY3OTk5IiBpZD0ibGluZWFyR3JhZGllbnQ0MTQ5IiB4bGluazpocmVmPSIjbGluZWFyR3JhZGllbnQzNzU5IiBncmFkaWVudFVuaXRzPSJ1c2VyU3BhY2VPblVzZSIgZ3JhZGllbnRUcmFuc2Zvcm09InRyYW5zbGF0ZSg4LjMwODUsLTIuNjUxOCkiLz4mI3hhOyAgICA8bGluZWFyR3JhZGllbnQgeDE9Ijg3OS45MDAwMiIgeTE9IjUzNy41IiB4Mj0iODEyLjE0MDAxIiB5Mj0iNTMzLjUiIGlkPSJsaW5lYXJHcmFkaWVudDQxNTMiIHhsaW5rOmhyZWY9IiNsaW5lYXJHcmFkaWVudDM3NTkiIGdyYWRpZW50VW5pdHM9InVzZXJTcGFjZU9uVXNlIiBncmFkaWVudFRyYW5zZm9ybT0ibWF0cml4KDAuODkzMzIsMCwwLDAuODkzMzIsODAuMzQ5LDM2NS4xNSkiLz4mI3hhOyAgICA8bGluZWFyR3JhZGllbnQgeDE9Ijg3OS45MDAwMiIgeTE9IjUzNy41IiB4Mj0iODE1LjgyMDAxIiB5Mj0iNTMxLjkwOTk3IiBpZD0ibGluZWFyR3JhZGllbnQ0MTU1IiB4bGluazpocmVmPSIjbGluZWFyR3JhZGllbnQzNzU5IiBncmFkaWVudFVuaXRzPSJ1c2VyU3BhY2VPblVzZSIgZ3JhZGllbnRUcmFuc2Zvcm09InRyYW5zbGF0ZSgyNy42MjUsMjk2LjQ5KSIvPiYjeGE7ICAgIDxsaW5lYXJHcmFkaWVudCB4MT0iODcxLjMzMDAyIiB5MT0iODQyLjI5OTk5IiB4Mj0iODQ4LjE1OTk3IiB5Mj0iODM0LjY3OTk5IiBpZD0ibGluZWFyR3JhZGllbnQ0MTg1IiB4bGluazpocmVmPSIjbGluZWFyR3JhZGllbnQzNzU5IiBncmFkaWVudFVuaXRzPSJ1c2VyU3BhY2VPblVzZSIgZ3JhZGllbnRUcmFuc2Zvcm09Im1hdHJpeCgxLDAsMCwtMSw4LjMwODUsMTQ1MikiLz4mI3hhOyAgICA8bGluZWFyR3JhZGllbnQgeDE9Ijg4Ny45MDAwMiIgeTE9IjUyOC4zNTk5OSIgeDI9Ijg3Ni4xNDAwMSIgeTI9IjUyOC40MTk5OCIgaWQ9ImxpbmVhckdyYWRpZW50NDE4NyIgeGxpbms6aHJlZj0iI2xpbmVhckdyYWRpZW50Mzc1OSIgZ3JhZGllbnRVbml0cz0idXNlclNwYWNlT25Vc2UiIGdyYWRpZW50VHJhbnNmb3JtPSJtYXRyaXgoMSwwLDAsLTEsMjEuNDM4LDExNTEuNSkiLz4mI3hhOyAgICA8bGluZWFyR3JhZGllbnQgeDE9Ijg3OS45MDAwMiIgeTE9IjUzNy41IiB4Mj0iODE1LjgyMDAxIiB5Mj0iNTMxLjkwOTk3IiBpZD0ibGluZWFyR3JhZGllbnQ0MTg5IiB4bGluazpocmVmPSIjbGluZWFyR3JhZGllbnQzNzU5IiBncmFkaWVudFVuaXRzPSJ1c2VyU3BhY2VPblVzZSIgZ3JhZGllbnRUcmFuc2Zvcm09Im1hdHJpeCgxLDAsMCwtMSwyNy42MjUsMTE1Mi45KSIvPiYjeGE7ICAgIDxsaW5lYXJHcmFkaWVudCB4MT0iODk3LjIxOTk3IiB5MT0iNTQyLjQwMDAyIiB4Mj0iODgzLjc2MDAxIiB5Mj0iNTM1LjM3IiBpZD0ibGluZWFyR3JhZGllbnQ0MTkxIiB4bGluazpocmVmPSIjbGluZWFyR3JhZGllbnQzNzU5IiBncmFkaWVudFVuaXRzPSJ1c2VyU3BhY2VPblVzZSIgZ3JhZGllbnRUcmFuc2Zvcm09Im1hdHJpeCgxLDAsMCwtMSwyMS40MzgsMTE1MS41KSIvPiYjeGE7ICAgIDxsaW5lYXJHcmFkaWVudCB4MT0iODgwLjcxMDAyIiB5MT0iNTUyLjA0OTk5IiB4Mj0iODM1Ljk4OTk5IiB5Mj0iNTAxLjA3OTk5IiBpZD0ibGluZWFyR3JhZGllbnQ0MTkzIiB4bGluazpocmVmPSIjbGluZWFyR3JhZGllbnQzNzU5IiBncmFkaWVudFVuaXRzPSJ1c2VyU3BhY2VPblVzZSIgZ3JhZGllbnRUcmFuc2Zvcm09Im1hdHJpeCgxLDAsMCwtMSwyMS40MzgsMTE1MS41KSIvPiYjeGE7ICAgIDxsaW5lYXJHcmFkaWVudCB4MT0iODg3LjkwMDAyIiB5MT0iNTI4LjM1OTk5IiB4Mj0iODA1LjI4OTk4IiB5Mj0iNTI5LjYwOTk5IiBpZD0ibGluZWFyR3JhZGllbnQ0MTk1IiB4bGluazpocmVmPSIjbGluZWFyR3JhZGllbnQzNzU5IiBncmFkaWVudFVuaXRzPSJ1c2VyU3BhY2VPblVzZSIgZ3JhZGllbnRUcmFuc2Zvcm09Im1hdHJpeCgwLjg5MzMyLDAsMCwtMC44OTMzMiw5NC4xNTYsMTA4Ny44KSIvPiYjeGE7ICAgIDxsaW5lYXJHcmFkaWVudCB4MT0iODc5LjkwMDAyIiB5MT0iNTM3LjUiIHgyPSI4MTIuMTQwMDEiIHkyPSI1MzMuNSIgaWQ9ImxpbmVhckdyYWRpZW50NDE5NyIgeGxpbms6aHJlZj0iI2xpbmVhckdyYWRpZW50Mzc1OSIgZ3JhZGllbnRVbml0cz0idXNlclNwYWNlT25Vc2UiIGdyYWRpZW50VHJhbnNmb3JtPSJtYXRyaXgoMC44OTMzMiwwLDAsLTAuODkzMzIsODAuMzQ5LDEwODQuMikiLz4mI3hhOyAgICA8bGluZWFyR3JhZGllbnQgeDE9IjIyOS43IiB5MT0iODczLjE0MDAxIiB4Mj0iMjA1LjU5IiB5Mj0iODY3LjY3OTk5IiBpZD0ibGluZWFyR3JhZGllbnQ0MTk5IiB4bGluazpocmVmPSIjbGluZWFyR3JhZGllbnQzNzU5IiBncmFkaWVudFVuaXRzPSJ1c2VyU3BhY2VPblVzZSIgZ3JhZGllbnRUcmFuc2Zvcm09Im1hdHJpeCgwLjk5MDQzLC0wLjEzNzk5LC0wLjEzNzk5LC0wLjk5MDQzLDE0Ni4wNSwxNDgzLjMpIi8+JiN4YTsgICAgPGxpbmVhckdyYWRpZW50IHgxPSIyMzguODMiIHkxPSI4NzMuMDYiIHgyPSIyMTYuNTYiIHkyPSI4NzIuNjUwMDIiIGlkPSJsaW5lYXJHcmFkaWVudDQyMDEiIHhsaW5rOmhyZWY9IiNsaW5lYXJHcmFkaWVudDM3NTkiIGdyYWRpZW50VW5pdHM9InVzZXJTcGFjZU9uVXNlIiBncmFkaWVudFRyYW5zZm9ybT0ibWF0cml4KDAuOTkwNDMsLTAuMTM3OTksLTAuMTM3OTksLTAuOTkwNDMsMTU2LjMxLDE0ODIpIi8+JiN4YTsgICAgPGxpbmVhckdyYWRpZW50IHgxPSI4ODcuOTAwMDIiIHkxPSI1MjguMzU5OTkiIHgyPSI4NzYuMTQwMDEiIHkyPSI1MjguNDE5OTgiIGlkPSJsaW5lYXJHcmFkaWVudDQyMDMiIHhsaW5rOmhyZWY9IiNsaW5lYXJHcmFkaWVudDM3NTkiIGdyYWRpZW50VW5pdHM9InVzZXJTcGFjZU9uVXNlIiBncmFkaWVudFRyYW5zZm9ybT0idHJhbnNsYXRlKDIxLjQzOCwyOTcuOTEpIi8+JiN4YTsgICAgPGxpbmVhckdyYWRpZW50IHgxPSI4OTcuMjE5OTciIHkxPSI1NDIuNDAwMDIiIHgyPSI4ODMuNzYwMDEiIHkyPSI1MzUuMzciIGlkPSJsaW5lYXJHcmFkaWVudDQyMDUiIHhsaW5rOmhyZWY9IiNsaW5lYXJHcmFkaWVudDM3NTkiIGdyYWRpZW50VW5pdHM9InVzZXJTcGFjZU9uVXNlIiBncmFkaWVudFRyYW5zZm9ybT0idHJhbnNsYXRlKDIxLjQzOCwyOTcuOTEpIi8+JiN4YTsgICAgPGxpbmVhckdyYWRpZW50IHgxPSI4ODAuNzEwMDIiIHkxPSI1NTIuMDQ5OTkiIHgyPSI4MzUuOTg5OTkiIHkyPSI1MDEuMDc5OTkiIGlkPSJsaW5lYXJHcmFkaWVudDQyMDciIHhsaW5rOmhyZWY9IiNsaW5lYXJHcmFkaWVudDM3NTkiIGdyYWRpZW50VW5pdHM9InVzZXJTcGFjZU9uVXNlIiBncmFkaWVudFRyYW5zZm9ybT0idHJhbnNsYXRlKDIxLjQzOCwyOTcuOTEpIi8+JiN4YTsgICAgPGxpbmVhckdyYWRpZW50IHgxPSI4ODcuOTAwMDIiIHkxPSI1MjguMzU5OTkiIHgyPSI4MDUuMjg5OTgiIHkyPSI1MjkuNjA5OTkiIGlkPSJsaW5lYXJHcmFkaWVudDQyMDkiIHhsaW5rOmhyZWY9IiNsaW5lYXJHcmFkaWVudDM3NTkiIGdyYWRpZW50VW5pdHM9InVzZXJTcGFjZU9uVXNlIiBncmFkaWVudFRyYW5zZm9ybT0ibWF0cml4KDAuODkzMzIsMCwwLDAuODkzMzIsOTQuMTU2LDM2MS41NykiLz4mI3hhOyAgICA8bGluZWFyR3JhZGllbnQgeDE9IjIyOS43IiB5MT0iODczLjE0MDAxIiB4Mj0iMjA1LjU5IiB5Mj0iODY3LjY3OTk5IiBpZD0ibGluZWFyR3JhZGllbnQ0MjExIiB4bGluazpocmVmPSIjbGluZWFyR3JhZGllbnQzNzU5IiBncmFkaWVudFVuaXRzPSJ1c2VyU3BhY2VPblVzZSIgZ3JhZGllbnRUcmFuc2Zvcm09Im1hdHJpeCgwLjk5MDQzLDAuMTM3OTksLTAuMTM3OTksMC45OTA0MywxNDYuMDUsLTMzLjg4NSkiLz4mI3hhOyAgICA8bGluZWFyR3JhZGllbnQgeDE9IjIzOC44MyIgeTE9Ijg3My4wNiIgeDI9IjIxNi41NiIgeTI9Ijg3Mi42NTAwMiIgaWQ9ImxpbmVhckdyYWRpZW50NDIxMyIgeGxpbms6aHJlZj0iI2xpbmVhckdyYWRpZW50Mzc1OSIgZ3JhZGllbnRVbml0cz0idXNlclNwYWNlT25Vc2UiIGdyYWRpZW50VHJhbnNmb3JtPSJtYXRyaXgoMC45OTA0MywwLjEzNzk5LC0wLjEzNzk5LDAuOTkwNDMsMTU2LjMxLC0zMi42MDMpIi8+JiN4YTsgIDwvZGVmcz4mI3hhOyAgPGcgdHJhbnNmb3JtPSJ0cmFuc2xhdGUoLTUyLjkzNywtNDg2LjY5KSIgaWQ9ImxheWVyMSI+JiN4YTsgICAgPGcgaWQ9ImczODkwIj4mI3hhOyAgICAgIDxwYXRoIGQ9Im0gNjEwLjUyLDQ5My42OSBjIC0xLjUwODYsMC4wMDkgLTQuNzIxMSwwLjMwNDkxIC02LjQ2ODcsMC45Mzc1IGwgLTMuNSwxLjUgOC42NTYyLDM1LjkzOCAtMTI0LjgxLDAuMjgxMjUgYyAtMi40MzYzLDAuMDA1IC00Ljg4NzYsLTAuMDE0IC03LjM0MzcsLTAuMDMxMiAtNC45MTIsLTAuMDM0MyAtOS44NjQ5LC0wLjEwNDU1IC0xNC44NDQsLTAuMjE4NzUgLTcuMjkyNiwtMC4xNjcyOCAtMTQuNjY5LC0wLjQxMjg4IC0yMi4wNjIsLTAuNzE4NzUgLTAuMzk1OTEsLTAuMDE2NCAtMC43OTEzNywtMC4wNDU3IC0xLjE4NzUsLTAuMDYyNSAtMTQuOTMyLC0wLjYzMDE4IC0zMC4wMDcsLTEuNDkxNyAtNDUuMDMxLC0yLjQzNzUgLTIwLjMyNiwtMS4yODI3IC00MC41MiwtMi43MDc0IC02MC4xMjQsLTMuODc1IC0xNC41MjgsLTAuODY1MyAtMjguNzMyLC0xLjU3OTYgLTQyLjM3NSwtMiAtOS4zNjkyLC0wLjI4ODczIC0xOC40NjQsLTAuNDU2NTUgLTI3LjI1LC0wLjQwNjI1IC00LjMxNTgsMC4wMjQ3IC04LjU2NzgsMC4wOTMzIC0xMi43MTksMC4yMTg3NSAtNC4xNTA4LDAuMTI1NDYgLTguMzgwMSwwLjM1NTMgLTEyLjY1NiwwLjY1NjI1IC0yLjEzOCwwLjE1MDQ3IC00LjI3NzgsMC4zMTAyNCAtNi40Mzc0LDAuNSAtNi40Njg5LDAuNTY4NCAtMTMuMDQ1LDEuMzIxNCAtMTkuNTk0LDIuMTg3NSAtMC4wMTAxLDEwZS00IC0wLjAyMTEsLTEwZS00IC0wLjAzMTIsMCAtNC4zNzI1LDAuNTc4NTggLTguNzE4NSwxLjIyNTUgLTEzLjA2MiwxLjkwNjIgLTQuMzQzOSwwLjY4MDczIC04LjY3MzQsMS4zOTc4IC0xMi45MzcsMi4xNTYyIC00LjI1MzcsMC43NTY2MiAtOC40NzA0LDEuNTY1NCAtMTIuNTk0LDIuMzc1IC0wLjAxLDAuMDAyIC0wLjAyMTIsLTAuMDAyIC0wLjAzMTIsMCAtMi4wNjY0LDAuNDA1ODYgLTQuMDY5NywwLjgwNDE3IC02LjA5MzcsMS4yMTg4IC02LjA2MTQsMS4yNDE2IC0xMS45MzQsMi41MTYgLTE3LjUsMy43ODEyIC0wLjAxMDEsMC4wMDIgLTAuMDIxMSwtMC4wMDIgLTAuMDMxMiwwIC0zLjcxNjUsMC44NDQ5IC03LjI4NzIsMS42NzUyIC0xMC43MTksMi41IC02Ljg2MzgsMS42NDg0IC0xMy4xMTUsMy4yMzQ2IC0xOC41MzEsNC42NTYyIC04LjEyMzYsMi4xMzI1IC0xNC4zODIsMy45MjcyIC0xOC4wOTQsNSAtMi40NzM2LDAuNzE1NzggLTMuODEyNSwxLjEyNSAtMy44MTI1LDEuMTI1IGwgLTEzLjY4NywzLjc1IGMgLTAuOTAyNCwwLjI0ODczIC0xLjc3ODEsMC42OTI5IC0yLjYyNSwxLjMxMjUgLTAuMjg3NzEsMC4yMTA1IC0wLjU2MjM0LDAuNDM1OTMgLTAuODQzNzQsMC42ODc1IC0xLjA5OTYsMC45Nzk2IC0yLjE1MSwyLjI3MDcgLTMuMTU2MiwzLjg0MzggLTAuMDA0NiwwLjAwNyAwLjAwNDYsMC4wMjQzIDAsMC4wMzEyIC0wLjUwMDM2LDAuNzg0NzMgLTEuMDIyNSwxLjY0MDUgLTEuNSwyLjU2MjUgLTAuMDA0MiwwLjAwOCAwLjAwNDIsMC4wMjMyIDAsMC4wMzEyIC0wLjQ3NzU3LDAuOTIzNyAtMC45NTExNCwxLjkxNDIgLTEuNDA2MiwyLjk2ODggLTAuMDAzNywwLjAwOSAwLjAwMzcsMC4wMjIyIDAsMC4wMzEyIC0zLjY2Nyw4LjUwOTUgLTYuNjIsMjEuMTMxIC04LjkzNzQsMzYuMjE5IC0wLjAwMTUsMC4wMSAwLjAwMTUsMC4wMjEyIDAsMC4wMzEyIC0wLjAzNTk1LDAuMjM0MTYgLTAuMDU4MSwwLjQ4MzQyIC0wLjA5Mzc1LDAuNzE4NzUgLTAuNTA0NjIsMy4zMzE1IC0wLjk5MjA0LDYuNzk4MiAtMS40Mzc1LDEwLjM0NCAtMC4wMzA0OCwwLjI0MjY1IC0wLjA2MzU1LDAuNDc1MTkgLTAuMDkzNzUsMC43MTg3NSAtMC41MDE1Nyw0LjA0MzIgLTAuOTQ2NzIsOC4yMDI1IC0xLjM3NSwxMi40NjkgLTAuMDAxLDAuMDEgOS45OWUtNCwwLjAyMTEgMCwwLjAzMTIgLTAuMjEzNTQsMi4xMjg0IC0wLjQyOTEyLDQuMjk0OCAtMC42MjQ5OSw2LjQ2ODggLTkuMjFlLTQsMC4wMSA5LjIxZS00LDAuMDIwOSAwLDAuMDMxMiAtMC4xOTU4MSwyLjE3NDMgLTAuMzgzOTcsNC4zNDkyIC0wLjU2MjQ5LDYuNTYyNSAtOC4yNmUtNCwwLjAxIDguMjVlLTQsMC4wMjA5IDAsMC4wMzEyIC0wLjM1Nzc1LDQuNDM3NiAtMC42NzgxNyw4Ljk0NTggLTAuOTY4NzQsMTMuNSAtNi41NmUtNCwwLjAxMDEgNi41NWUtNCwwLjAyMDkgMCwwLjAzMTIgLTAuODcyNiwxMy42ODQgLTEuNDU5NiwyNy43ODkgLTEuNzgxMiw0MS41NjIgLTIuNDVlLTQsMC4wMTA0IDIuNDRlLTQsMC4wMjA3IDAsMC4wMzEyIC0wLjIxNDQzLDkuMTg5NCAtMC4zMTI2LDE4LjIxMyAtMC4zMTI2LDI2LjkwNyAwLDAuOTY3NjMgMC4wMjc1NSwxLjk2MjkgMC4wMzEyNSwyLjkzNzUgLTAuMDAzNywwLjk3NDYyIC0wLjAzMTI1LDEuOTY5OSAtMC4wMzEyNSwyLjkzNzUgMCw4LjY5MzIgMC4wOTgxNiwxNy43MTcgMC4zMTI1LDI2LjkwNiAyLjQ0ZS00LDAuMDEwNSAtMi40NWUtNCwwLjAyMDggMCwwLjAzMTIgMC4zMjE2NSwxMy43NzQgMC45MDg2NCwyNy44NzggMS43ODEyLDQxLjU2MiA2LjU1ZS00LDAuMDEwMyAtNi41NmUtNCwwLjAyMTEgMCwwLjAzMTIgMC4yOTA1Nyw0LjU1NDIgMC42MTA5OSw5LjA2MjQgMC45Njg3NCwxMy41IDguMjVlLTQsMC4wMTAzIC04LjI2ZS00LDAuMDIxMSAwLDAuMDMxMiAwLjE3ODUyLDIuMjEzMyAwLjM2NjY4LDQuMzg4MiAwLjU2MjQ5LDYuNTYyNSA5LjIxZS00LDAuMDEwMyAtOS4yMWUtNCwwLjAyMTEgMCwwLjAzMTIgMC4xOTU4OCwyLjE3NCAwLjQxMTQ1LDQuMzQwNCAwLjYyNDk5LDYuNDY4OCA5Ljk5ZS00LDAuMDEwMiAtMC4wMDEsMC4wMjExIDAsMC4wMzEyIDAuNDI4MjYsNC4yNjYzIDAuODczNDIsOC40MjU2IDEuMzc1LDEyLjQ2OSAwLjAzMDIsMC4yNDM1NiAwLjA2MzI3LDAuNDc2MSAwLjA5Mzc1LDAuNzE4NzUgMC40NDU0NSwzLjU0NTYgMC45MzI4Nyw3LjAxMjMgMS40Mzc1LDEwLjM0NCAwLjAzNTY1LDAuMjM1MzMgMC4wNTc4LDAuNDg0NTkgMC4wOTM3NSwwLjcxODc1IDAuMDAxNSwwLjAxIC0wLjAwMTUsMC4wMjE1IDAsMC4wMzEyIDIuMzE3NCwxNS4wODcgNS4yNzA0LDI3LjcwOSA4LjkzNzQsMzYuMjE5IDAuMDAzNywwLjAwOSAtMC4wMDM3LDAuMDIyNiAwLDAuMDMxMiAwLjQ1NTA5LDEuMDU0NiAwLjkyODY2LDIuMDQ1IDEuNDA2MiwyLjk2ODggMC4wMDQyLDAuMDA4IC0wLjAwNDIsMC4wMjMxIDAsMC4wMzEyIDAuNDc3NTMsMC45MjIwNCAwLjk5OTYyLDEuNzc3OCAxLjUsMi41NjI1IDAuMDA0NiwwLjAwNyAtMC4wMDQ2LDAuMDI0MiAwLDAuMDMxMiAxLjAwNTIsMS41NzMxIDIuMDU2NiwyLjg2NDIgMy4xNTYyLDMuODQzOCAwLjI4MTQsMC4yNTE1NyAwLjU1NjAzLDAuNDc3IDAuODQzNzQsMC42ODc1IDAuODQ2ODYsMC42MTk2IDEuNzIyNiwxLjA2MzggMi42MjUsMS4zMTI1IGwgMTMuNjg3LDMuNzUgYyAwLDAgMS4zMzg4LDAuNDA5MjIgMy44MTI1LDEuMTI1IDMuNzExMSwxLjA3MjggOS45NywyLjg2NzUgMTguMDk0LDUgNS40MTU3LDEuNDIxNyAxMS42NjcsMy4wMDc4IDE4LjUzMSw0LjY1NjIgMy40MzE0LDAuODI0ODQgNy4wMDIyLDEuNjU1MSAxMC43MTksMi41IDAuMDEwMiwwLjAwMiAwLjAyMTEsLTAuMDAyIDAuMDMxMiwwIDUuNTY2MSwxLjI2NTIgMTEuNDM4LDIuNTM5NiAxNy41LDMuNzgxMiAyLjAyNCwwLjQxNDU4IDQuMDI3MywwLjgxMjg5IDYuMDkzNywxLjIxODggMC4wMTAxLDAuMDAyIDAuMDIxMiwtMC4wMDIgMC4wMzEyLDAgNC4xMjMyLDAuODA5NjUgOC4zMzk5LDEuNjE4NCAxMi41OTQsMi4zNzUgNC4yNjQsMC43NTg0MyA4LjU5MzUsMS40NzU1IDEyLjkzNywyLjE1NjIgNC4zNDM5LDAuNjgwNzMgOC42ODk4LDEuMzI3NyAxMy4wNjIsMS45MDYyIDAuMDEwMiwxMGUtNCAwLjAyMTEsLTEwZS00IDAuMDMxMiwwIDYuNTQ4NiwwLjg2NjExIDEzLjEyNSwxLjYxOTEgMTkuNTk0LDIuMTg3NSAyLjE1OTcsMC4xODk3NiA0LjI5OTQsMC4zNDk1MyA2LjQzNzQsMC41IDQuMjc2LDAuMzAwOTUgOC41MDUzLDAuNTMwNzkgMTIuNjU2LDAuNjU2MjUgNC4xNTA4LDAuMTI1NDYgOC40MDI4LDAuMTk0MDMgMTIuNzE5LDAuMjE4NzUgOC43ODU5LDAuMDUwMyAxNy44ODEsLTAuMTE3NTIgMjcuMjUsLTAuNDA2MjUgMTMuNjQyLC0wLjQyMDQzIDI3Ljg0NywtMS4xMzQ3IDQyLjM3NSwtMiAxOS42MDQsLTEuMTY3NiAzOS43OTgsLTIuNTkyMyA2MC4xMjQsLTMuODc1IDE1LjAyNCwtMC45NDU3OCAzMC4wOTgsLTEuODA3MyA0NS4wMzEsLTIuNDM3NSAwLjM5NjEyLC0wLjAxNjggMC43OTE1OCwtMC4wNDYxIDEuMTg3NSwtMC4wNjI1IDcuMzkzNCwtMC4zMDU4NyAxNC43NywtMC41NTE0NyAyMi4wNjIsLTAuNzE4NzUgNC45Nzg3LC0wLjExNDIgOS45MzE2LC0wLjE4NDQ3IDE0Ljg0NCwtMC4yMTg3NSAyLjQ1NiwtMC4wMTcyIDQuOTA3MywtMC4wMzY1IDcuMzQzNywtMC4wMzEyIGwgMTI0LjgxLDAuMjgxMjUgLTguNjU2MiwzNS45MzggMy41LDEuNSBjIDEuNzQ3NiwwLjYzMjU5IDQuOTYwMSwwLjkyODUxIDYuNDY4NywwLjkzNzUgMC44NDg2LDAuMDA1IDEuNzU1MSwtMC4wNzQxIDIuNjg3NSwtMC4yNSAwLjMxMDY5LC0wLjA1ODUgMC42MjM1MiwtMC4xNDEwNSAwLjkzNzQ5LC0wLjIxODc1IDAuMzA0NTksLTAuMDc1NiAwLjYzMjU4LC0wLjE1NjY4IDAuOTM3NDksLTAuMjUgMC42Mjg0NCwtMC4xOTMwNiAxLjI2MzUsLTAuNDIxNTYgMS44NzUsLTAuNjg3NSAxLjgyMTUsLTAuNzkzNTEgMy41MzQyLC0xLjkzMTQgNC43ODEyLC0zLjMxMjUgMC4wMSwtMC4wMTA3IDAuMDIxNywtMC4wMjA2IDAuMDMxMiwtMC4wMzEyIDAuNjI0OCwtMC42OTc5IDEuMTEyMywtMS40NTEyIDEuNDY4NywtMi4yODEyIGwgMTIuMTU2LC0zMS4zMTIgMTA5Ljk0LDAuMjUgYyAwLjc0NjksMC4zNzM5IDEuNDc2MSwwLjc0NTExIDIuMjE4NywxLjA5MzggMi45NzkyLDEuMzk5NSA1LjkxMSwyLjU5NyA4Ljg0MzYsMy42MjUgMS40NjIzLDAuNTEyNTkgMi45MTc4LDAuOTc1NDkgNC4zNzUsMS40MDYyIDUuMSwxLjUwNzUgMTAuMTg4LDIuNTUxNSAxNS4zNDQsMy4yNSAyLjk0NjIsMC4zOTkzMiA1LjkyNTksMC42OTM4OCA4LjkzNzQsMC45MDYyNSAxLjUwNTcsMC4xMDYxIDMuMDM0LDAuMTgwMTEgNC41NjI0LDAuMjUgMy4wNTcsMC4xMzk5NCA2LjEzODYsMC4yMTI4MyA5LjMxMjQsMC4yNSA2LjM0NzUsMC4wNzQxIDEyLjk3OSwwIDIwLDAgMTAuNDEsMCAyMC4zMjIsLTAuNTMxMjIgMjkuNzgxLC0xLjU2MjUgMy43ODM1LC0wLjQxMjUxIDcuNDkxMSwtMC44OTc0OSAxMS4xMjUsLTEuNDY4OCA3LjI2NzYsLTEuMTQyNSAxNC4yMjgsLTIuNjE4OSAyMC45MDYsLTQuMzc1IDEuNjY5NCwtMC40MzkwMyAzLjMzNTcsLTAuODk4NzQgNC45Njg3LC0xLjM3NSA0Ljg5OSwtMS40Mjg4IDkuNjEyOCwtMy4wMjU0IDE0LjE4NywtNC43ODEyIDEuNTI0OCwtMC41ODUyNyAzLjA0MiwtMS4xNjA1IDQuNTMxMiwtMS43ODEyIDIuOTc4MywtMS4yNDE0IDUuODgyLC0yLjU1NyA4LjcxODYsLTMuOTM3NSAxLjQxODMsLTAuNjkwMjcgMi44MzU1LC0xLjQwMDYgNC4yMTg3LC0yLjEyNSAyLjc2NjQsLTEuNDQ4OCA1LjQ2NjgsLTIuOTggOC4wOTM3LC00LjU2MjUgMS4zMTM1LC0wLjc5MTI1IDIuNTk2MSwtMS42MTM1IDMuODc1LC0yLjQzNzUgNi4zOTQzLC00LjEyMDEgMTIuMzYzLC04LjYyNTUgMTcuOTA2LC0xMy41MzEgNC40Mjg2LC0zLjkxOTUgOC42MDE1LC04LjA3OTggMTIuNSwtMTIuNDY5IDAuMDA1LC0wLjAwNiAtMC4wMDUsLTAuMDI1NCAwLC0wLjAzMTIgMC45NzA0NCwtMS4wOTI5IDEuOTM3LC0yLjE5MTYgMi44NzUsLTMuMzEyNSAwLjAwNSwtMC4wMDYgLTAuMDA1LC0wLjAyNTEgMCwtMC4wMzEyIDAuOTM3NzMsLTEuMTIwOSAxLjg3NTcsLTIuMjU3OCAyLjc4MTIsLTMuNDA2MiAwLjAwNSwtMC4wMDYgLTAuMDA1LC0wLjAyNDkgMCwtMC4wMzEyIDIuNzI1NiwtMy40NTgyIDUuMzEzMiwtNy4wMTg5IDcuNzQ5OSwtMTAuNzE5IDAuMDA1LC0wLjAwNyAtMC4wMDUsLTAuMDI0IDAsLTAuMDMxMiAwLjgwODgyLC0xLjIyODYgMS42Mjg5LC0yLjQ2NDQgMi40MDYyLC0zLjcxODggMC4wMDUsLTAuMDA4IC0wLjAwNSwtMC4wMjM4IDAsLTAuMDMxMiAyLjM0MDUsLTMuNzc4MSA0LjU2NjgsLTcuNjUyNSA2LjYyNDksLTExLjY1NiAwLjAwNCwtMC4wMDggLTAuMDA0LC0wLjAyMzEgMCwtMC4wMzEyIDAuNjgyOTksLTEuMzI5MiAxLjM0NzcsLTIuNjc4MSAyLC00LjAzMTIgMC4wMDQsLTAuMDA4IC0wLjAwNCwtMC4wMjI5IDAsLTAuMDMxMiAwLjY1MjA0LC0xLjM1MzMgMS4zMTYsLTIuNzE2OSAxLjkzNzUsLTQuMDkzOCAwLjAwNCwtMC4wMDkgLTAuMDA0LC0wLjAyMjcgMCwtMC4wMzEyIDEuMjQ2NCwtMi43NjI1IDIuNDM4LC01LjU1MTcgMy41NjI1LC04LjQwNjIgMC4wMDQsLTAuMDA5IC0wLjAwNCwtMC4wMjI0IDAsLTAuMDMxMiAwLjU2MDIzLC0xLjQyMjkgMS4wOTQ4LC0yLjg2NzQgMS42MjUsLTQuMzEyNSAwLjAwMywtMC4wMDkgLTAuMDAzLC0wLjAyMjIgMCwtMC4wMzEyIDAuNTMwMDIsLTEuNDQ1MiAxLjA2MjMsLTIuOTA4IDEuNTYyNSwtNC4zNzUgMC40OTk5OSwtMS40NjcxIDAuOTk4NDIsLTIuOTQ5IDEuNDY4NywtNC40Mzc1IDAuMDAzLC0wLjAwOSAtMC4wMDMsLTAuMDIyIDAsLTAuMDMxMiAwLjQ3MDEzLC0xLjQ4ODYgMC45MzQzNSwtMi45OTA1IDEuMzc1LC00LjUgMC4wMDMsLTAuMDEgLTAuMDAzLC0wLjAyMTcgMCwtMC4wMzEyIDAuNDQwNDUsLTEuNTA5NiAwLjg3MDA5LC0zLjAzMjQgMS4yODEyLC00LjU2MjUgMC4wMDMsLTAuMDEgLTAuMDAzLC0wLjAyMTcgMCwtMC4wMzEyIDEuMjM4MSwtNC42MTAxIDIuMzY4NCwtOS4zMDYgMy4zNDM3MiwtMTQuMDk0IHYgLTAuMDMxMiBjIDAuMzIzNiwtMS41ODk0IDAuNjExMiwtMy4yMDQ0IDAuOTA2MywtNC44MTI1IHYgLTAuMDMxMiBjIDIuMDc0NywtMTEuMzE4IDMuNDYyMSwtMjMuMDYyIDQuMTU2MiwtMzUuMjE5IDVlLTQsLTAuMDEwMyAtNmUtNCwtMC4wMjExIDAsLTAuMDMxMiAwLjA5OCwtMS43Mjc5IDAuMTc4NywtMy40NzU3IDAuMjUsLTUuMjE4OCA0ZS00LC0wLjAxMDMgLTRlLTQsLTAuMDIxMSAwLC0wLjAzMTIgMC4xNDI2LC0zLjQ5NjkgMC4yNDY3LC03LjAwNzIgMC4yODEyLC0xMC41NjIgMCwtMC4wMTAzIC0xMGUtNSwtMC4wMjExIDAsLTAuMDMxMiAwLjAxNywtMS43ODMgMC4wMSwtMy41NzggMCwtNS4zNzUgMCwtMC42MzU4IC0wLjAyMiwtMS4yNzE0IC0wLjAzMSwtMS45MDYyIDAuMDEsLTAuNjM0ODUgMC4wMzEsLTEuMjcwNCAwLjAzMSwtMS45MDYyIDAuMDEsLTEuNzk3IDAuMDE3LC0zLjU5MiAwLC01LjM3NSAtMTBlLTUsLTAuMDEwMiAwLC0wLjAyMDkgMCwtMC4wMzEyIC0wLjAzNCwtMy41NTUzIC0wLjEzODYsLTcuMDY1NiAtMC4yODEyLC0xMC41NjIgLTRlLTQsLTAuMDEwMiA0ZS00LC0wLjAyMDkgMCwtMC4wMzEyIC0wLjA3MSwtMS43NDMxIC0wLjE1MiwtMy40OTA4IC0wLjI1LC01LjIxODggLTZlLTQsLTAuMDEwMiA1ZS00LC0wLjAyMDkgMCwtMC4wMzEyIC0wLjY5NDEsLTEyLjE1NyAtMi4wODE1LC0yMy45IC00LjE1NjIsLTM1LjIxOSB2IC0wLjAzMTIgYyAtMC4yOTUxLC0xLjYwODEgLTAuNTgyNywtMy4yMjMxIC0wLjkwNjMsLTQuODEyNSB2IC0wLjAzMTIgYyAtMC45NzUzOSwtNC43ODc4IC0yLjEwNTYyLC05LjQ4MzYgLTMuMzQzNzIsLTE0LjA5NCAtMC4wMDMsLTAuMDEgMC4wMDMsLTAuMDIxMyAwLC0wLjAzMTIgLTAuNDExMTUsLTEuNTMwMSAtMC44NDA3OSwtMy4wNTI5IC0xLjI4MTIsLTQuNTYyNSAtMC4wMDMsLTAuMDEgMC4wMDMsLTAuMDIxMyAwLC0wLjAzMTIgLTAuNDQwNjMsLTEuNTA5NSAtMC45MDQ4NSwtMy4wMTE0IC0xLjM3NSwtNC41IC0wLjAwMywtMC4wMDkgMC4wMDMsLTAuMDIyMyAwLC0wLjAzMTIgLTAuNDcwMzIsLTEuNDg4NSAtMC45Njg3NSwtMi45NzA0IC0xLjQ2ODcsLTQuNDM3NSAtMC41MDAxNywtMS40NjcgLTEuMDMyNSwtMi45Mjk4IC0xLjU2MjUsLTQuMzc1IC0wLjAwMywtMC4wMDkgMC4wMDMsLTAuMDIyMyAwLC0wLjAzMTIgLTAuNTMwMjEsLTEuNDQ1MSAtMS4wNjQ4LC0yLjg4OTYgLTEuNjI1LC00LjMxMjUgLTAuMDA0LC0wLjAwOSAwLjAwNCwtMC4wMjIzIDAsLTAuMDMxMiAtMS4xMjQ0LC0yLjg1NDYgLTIuMzE2MSwtNS42NDM4IC0zLjU2MjUsLTguNDA2MiAtMC4wMDQsLTAuMDA4IDAuMDA0LC0wLjAyMjMgMCwtMC4wMzEyIC0wLjYyMTQ4LC0xLjM3NjggLTEuMjg1NCwtMi43NDA1IC0xLjkzNzUsLTQuMDkzOCAtMC4wMDQsLTAuMDA4IDAuMDA0LC0wLjAyMzMgMCwtMC4wMzEyIC0wLjY1MjI0LC0xLjM1MzIgLTEuMzE3LC0yLjcwMjEgLTIsLTQuMDMxMiAtMC4wMDQsLTAuMDA4IDAuMDA0LC0wLjAyMzMgMCwtMC4wMzEyIC0yLjA1ODIsLTQuMDAzOCAtNC4yODQ0LC03Ljg3ODIgLTYuNjI0OSwtMTEuNjU2IC0wLjAwNSwtMC4wMDcgMC4wMDUsLTAuMDIzMyAwLC0wLjAzMTIgLTAuNzc3MzMsLTEuMjU0MyAtMS41OTc0LC0yLjQ5MDIgLTIuNDA2MiwtMy43MTg4IC0wLjAwNSwtMC4wMDcgMC4wMDUsLTAuMDI0MiAwLC0wLjAzMTIgLTIuNDM2NywtMy42OTk5IC01LjAyNDMsLTcuMjYwNiAtNy43NDk5LC0xMC43MTkgLTAuMDA1LC0wLjAwNiAwLjAwNSwtMC4wMjUzIDAsLTAuMDMxMiAtMC45MDU0OSwtMS4xNDg1IC0xLjg0MzUsLTIuMjg1MyAtMi43ODEyLC0zLjQwNjIgLTAuMDA1LC0wLjAwNiAwLjAwNSwtMC4wMjUzIDAsLTAuMDMxMiAtMC45MzgwMSwtMS4xMjA5IC0xLjkwNDUsLTIuMjE5NiAtMi44NzUsLTMuMzEyNSAtMC4wMDUsLTAuMDA2IDAuMDA1LC0wLjAyNTMgMCwtMC4wMzEyIC0zLjg5ODMsLTQuMzg4OSAtOC4wNzEyLC04LjU0OTMgLTEyLjUsLTEyLjQ2OSAtNS41NDMsLTQuOTA1OCAtMTEuNTEyLC05LjQxMTIgLTE3LjkwNiwtMTMuNTMxIC0xLjI3ODksLTAuODI0MDIgLTIuNTYxNSwtMS42NDYyIC0zLjg3NSwtMi40Mzc1IC0yLjYyNjksLTEuNTgyNSAtNS4zMjczLC0zLjExMzcgLTguMDkzNywtNC41NjI1IC0xLjM4MzIsLTAuNzI0MzkgLTIuODAwNCwtMS40MzQ3IC00LjIxODcsLTIuMTI1IC0yLjgzNjcsLTEuMzgwNiAtNS43NDAzLC0yLjY5NjEgLTguNzE4NiwtMy45Mzc1IC0xLjQ4OTIsLTAuNjIwNzEgLTMuMDA2NCwtMS4xOTYgLTQuNTMxMiwtMS43ODEyIC00LjU3NDYsLTEuNzU1OCAtOS4yODgzLC0zLjM1MjUgLTE0LjE4NywtNC43ODEyIC0xLjYzMywtMC40NzYyNiAtMy4yOTkzLC0wLjkzNTk3IC00Ljk2ODcsLTEuMzc1IC02LjY3NzcsLTEuNzU2MSAtMTMuNjM4LC0zLjIzMjUgLTIwLjkwNiwtNC4zNzUgLTMuNjMzOCwtMC41NzEyNiAtNy4zNDE0LC0xLjA1NjIgLTExLjEyNSwtMS40Njg4IC05LjQ1ODYsLTEuMDMyNiAtMTkuMzcxLC0xLjU2MzggLTI5Ljc4MSwtMS41NjM4IC03LjAyMDQsMCAtMTMuNjUyLC0wLjA3NDEgLTIwLDAgLTMuMTczOCwwLjAzNzIgLTYuMjU1NCwwLjExMDA2IC05LjMxMjQsMC4yNSAtMS41Mjg1LDAuMDY5OSAtMy4wNTY4LDAuMTQzOSAtNC41NjI0LDAuMjUgLTMuMDExNSwwLjIxMjM3IC01Ljk5MTIsMC41MDY5MyAtOC45Mzc0LDAuOTA2MjUgLTUuMTU1NiwwLjY5ODQ5IC0xMC4yNDQsMS43NDI1IC0xNS4zNDQsMy4yNSAtMS40NTcyLDAuNDMwNzYgLTIuOTEyNywwLjg5MzY2IC00LjM3NSwxLjQwNjIgLTIuOTMyNywxLjAyOCAtNS44NjQ1LDIuMjI1NSAtOC44NDM2LDMuNjI1IC0wLjc0MjY3LDAuMzQ4NjQgLTEuNDcxOCwwLjcxOTg1IC0yLjIxODcsMS4wOTM4IGwgLTEwOS45NCwwLjI1IC0xMi4xNTYsLTMxLjMxMiBjIC0wLjM1NjQ0LC0wLjgzIC0wLjg0MzkzLC0xLjU4MzQgLTEuNDY4NywtMi4yODEyIC0wLjAxLC0wLjAxMDUgLTAuMDIxMywtMC4wMjA2IC0wLjAzMTIsLTAuMDMxMiAtMS4yNDcsLTEuMzgxMSAtMi45NTk3LC0yLjUxOSAtNC43ODEyLC0zLjMxMjUgLTAuNjExNDYsLTAuMjY1OTQgLTEuMjQ2NSwtMC40OTQ0NCAtMS44NzUsLTAuNjg3NSAtMC4zMDQ5MSwtMC4wOTMzIC0wLjYzMjksLTAuMTc0NCAtMC45Mzc0OSwtMC4yNSAtMC4zMTQwMiwtMC4wNzc3IC0wLjYyNjg1LC0wLjE2MDI1IC0wLjkzNzU0LC0wLjIxODc1IC0wLjkzMjQsLTAuMTc1OSAtMS44Mzg5LC0wLjI1NSAtMi42ODc1LC0wLjI1IHoiIGlkPSJwYXRoMzg1NSIgc3R5bGU9ImZpbGwtb3BhY2l0eTowLjk5NjA3OTk5O3N0cm9rZTojMTkxOTE5O3N0cm9rZS13aWR0aDoxNCIvPiYjeGE7ICAgICAgPHBhdGggZD0ibSA2MTAuNTIsNDkzLjY5IGMgLTEuNTA4NiwwLjAwOSAtNC43MjExLDAuMzA2MTEgLTYuNDY4NywwLjkzNzUgbCAtMy41LDEuNSA4LjY1NjIsMzUuODQ0IC0xMjQuODEsMC4yODEyNSBjIC03Ny45NjMsMC4xNjU0IC0xNjYuNTIsLTExLjUwNCAtMjMyLjkzLC05LjUgLTY2LjQxMiwyLjAwMzcgLTE1Mi4xMiwyOCAtMTUyLjEyLDI4IGwgLTEzLjY4NywzLjc4MTIgYyAtMTkuMjUxLDUuMjk2MyAtMjUuNzE4LDk3LjM2NyAtMjUuNzE4LDE2Ni43OCAwLDEuMTEzIDAuMDI2NjUsMi4yNTMxIDAuMDMxMjUsMy4zNzUgLTAuMDA0NiwxLjEyMTkgLTAuMDMxMjUsMi4yNjIgLTAuMDMxMjUsMy4zNzUgMCw2OS40MTQgNi40NjczLDE2MS40OCAyNS43MTgsMTY2Ljc4IGwgMTMuNjg3LDMuNzgxMiBjIDAsMCA4NS43MTEsMjUuOTk2IDE1Mi4xMiwyOCA2Ni40MTIsMi4wMDM3IDE1NC45NywtOS42NjU0IDIzMi45MywtOS41IGwgMTI0LjgxLDAuMjgxMjUgLTguNjU2MiwzNS44NDQgMy41LDEuNSBjIDEuNzQ3NiwwLjYzMTM5IDQuOTYsMC45Mjg1NCA2LjQ2ODcsMC45Mzc1IDAuODQ4NTksMC4wMDUgMS43NTUxLC0wLjA3NDQgMi42ODc1LC0wLjI1IDAuMzEwNywtMC4wNTg0IDAuNjIzNTIsLTAuMTQxMTkgMC45Mzc0OSwtMC4yMTg3NSAwLjMwNDU5LC0wLjA3NTQgMC42MzI1OSwtMC4xNTY4NiAwLjkzNzQ5LC0wLjI1IDAuNjI4NDQsLTAuMTkyNjkgMS4yNjM1LC0wLjQyMjA2IDEuODc1LC0wLjY4NzUgMS44MjE1LC0wLjc5MjAxIDMuNTM0MiwtMS45MDI4IDQuNzgxMiwtMy4yODEyIDAuMDEsLTAuMDEwNyAwLjAyMTcsLTAuMDIwOCAwLjAzMTIsLTAuMDMxMiAwLjYyNDgsLTAuNjk2NTggMS4xMTIzLC0xLjQ1MjggMS40Njg3LC0yLjI4MTIgbCAxMi4xNTYsLTMxLjI1IDEwOS45NCwwLjI1IGMgMjMuOSwxMS45NDIgNDUuNTExLDEwLjcxOSA3My41OTMsMTAuNzE5IDEzMy4yNSwwIDE4Ny42MzAwMiwtODYuNTg2IDE4Ny4wMDAwMiwtMjAxLjM4IDAsLTAuNzgwMiAtMC4wMTksLTEuNTY1NiAtMC4wMzEsLTIuMzQzOCAwLjAxMiwtMC43NzgxMSAwLjAzMSwtMS41NjM2IDAuMDMxLC0yLjM0MzggMC42MjgyLC0xMTQuNzkgLTUzLjc0OTAyLC0yMDEuMzggLTE4Ny4wMDAwMiwtMjAxLjM4IC0yOC4wODIsMCAtNDkuNjkzLC0xLjIyMzYgLTczLjU5MywxMC43MTkgbCAtMTA5Ljk0LDAuMjUgLTEyLjE1NiwtMzEuMjUgYyAtMC4zNTY0NSwtMC44Mjg0NCAtMC44NDM5MywtMS41ODQ3IC0xLjQ2ODcsLTIuMjgxMiAtMC4wMSwtMC4wMTA0IC0wLjAyMTMsLTAuMDIwNiAtMC4wMzEyLC0wLjAzMTIgLTEuMjQ3LC0xLjM3ODUgLTIuOTU5NywtMi40ODkyIC00Ljc4MTIsLTMuMjgxMiAtMC42MTE0OCwtMC4yNjU0NCAtMS4yNDY1LC0wLjQ5NDgxIC0xLjg3NSwtMC42ODc1IC0wLjMwNDksLTAuMDkzMSAtMC42MzI5LC0wLjE3NDYgLTAuOTM3NDksLTAuMjUgLTAuMzEzOTcsLTAuMDc3NiAtMC42MjY3OSwtMC4xNjAzNSAtMC45Mzc0OSwtMC4yMTg3NSAtMC45MzIzOSwtMC4xNzU2IC0xLjgzODksLTAuMjU1IC0yLjY4NzUsLTAuMjUgeiIgaWQ9InBhdGgyODUzIiBzdHlsZT0iZmlsbDojMzI3OGZmO2ZpbGwtb3BhY2l0eTowLjk5NjA3OTk5Ii8+JiN4YTsgICAgICA8cGF0aCBkPSJtIDQwMC4zNCw4NTUuMjQgYyAtMzMuMzY0LDAgLTY1LjMwNywxLjggLTk0LjgxMSw1LjA2MjUgMjUuNjYsNDguNzE0IDk3Ljk4NSwzMC4yNjUgMjA1LjU2LDMxLjUzMSA0OS42ODYsMC41ODQ3MSA4OS41NDMsMS44NzkzIDEyMS41MywyLjM3NSAtNDcuMTYsLTIzLjMzNCAtMTMzLjUzLC0zOC45NjkgLTIzMi4yOCwtMzguOTY5IHoiIGlkPSJwYXRoMzY0MyIgc3R5bGU9Im9wYWNpdHk6MC45O2ZpbGw6IzI2MjYyNjtmaWxsLW9wYWNpdHk6MC45OTYwNzk5OSIvPiYjeGE7ICAgICAgPHBhdGggZD0ibSA0MDAuMzQsODU1LjI0IGMgLTMuMjA2NCwwIC02LjM4MzEsMC4wMjk1IC05LjU2MjQsMC4wNjI1IDAuODE4MjUsMTYuMTcxIDYuNDI4MSwzMC4yNTcgMTQuNTk0LDM4Ljg0NCA0LjY3MTQsLTAuMDc1NiA5LjQ5NTEsLTAuMTk2NTUgMTQuNDM3LC0wLjM0Mzc1IC04LjU2NTcsLTguMTkyMyAtMTQuNTkzLC0yMi4yMjggLTE1LjcxOSwtMzguNTYyIC0xLjI1MTIsLTAuMDA1IC0yLjQ5NDcsMCAtMy43NSwwIHoiIGlkPSJwYXRoMzY1OCIgc3R5bGU9Im9wYWNpdHk6MC41O2ZpbGwtb3BhY2l0eTowLjk5NjA3OTk5Ii8+JiN4YTsgICAgICA8cGF0aCBkPSJtIDk4OS4wMiw4MjcuNSAtNS4wOTM3LDAuNTkzNzUgYyAtMjEuNTQ1LDIuNTEyNyAtMzcuNjg4LDI1Ljk3OSAtMzkuMjgxLDU0LjUzMSBsIC0wLjM3NDk5LDcuMTI1IDUuMjQ5OSwtNC44NDM4IGMgMTUuODg5LC0xNC42OCAyOC4zMDMsLTMyLjUwNyAzNy40MDYsLTUyLjc1IGwgMi4wOSwtNC42NSB6IiBpZD0icGF0aDM3MDciIHN0eWxlPSJ0ZXh0LWluZGVudDowO3RleHQtdHJhbnNmb3JtOm5vbmU7YmxvY2stcHJvZ3Jlc3Npb246dGI7Y29sb3I6IzAwMDAwMDtmaWxsOiMyMTIxMjE7c3Ryb2tlOiMxOTE5MTk7c3Ryb2tlLXdpZHRoOjUiLz4mI3hhOyAgICAgIDxwYXRoIGQ9Im0gNzgzLjQ3LDgzOC41IGMgMCwwIDc5LjY3NywtMjIuNTk2IDEwNS4zOCwtMzEuOTgyIDI2LjgzOSwtOS44MDE4IDk4Ljg1OSwtMzkuMTQ2IDk4Ljg1OSwtMzkuMTQ2IDAsMCAtOC43NDA5LDQyLjQ3IC0zMC40ODMsNTcuOTE4IC03Ny4yMyw1NC44NyAtMjMyLjY5LDUzLjg1IC0yMzIuNjksNTMuODUiIGlkPSJwYXRoMzcxNSIgc3R5bGU9Im9wYWNpdHk6MC41O2ZpbGw6bm9uZTtzdHJva2U6IzI5MjkyOTtzdHJva2Utd2lkdGg6NjtzdHJva2UtbGluZWNhcDpyb3VuZDtzdHJva2UtbGluZWpvaW46cm91bmQiLz4mI3hhOyAgICAgIDxwYXRoIGQ9Im0gODY5Ljk3LDgxNy44NCAtNC40Mzc0LDIuMzQzOCBjIDAuOTg5MTIsMS4xNTY4IDEuNzk1NSwyLjQyODYgMi4zNzUsMy44NDM4IDQuNzk3OSwxMS43MTcgLTEwLjczNiwyOS4yMzYgLTI2Ljg3NSwzNS43ODEgLTAuNTE2NzUsMC4yMDk1OCAtMS44MTI5LDAuODQwNjYgLTMuNDA2MiwxLjY1NjIgbCAxMy42MjUsLTMuODc1IGMgMTcuMzA2LC04LjQ1NzYgMjcuNDcsLTIzLjA4MiAyMywtMzQgLTAuOTE2MTUsLTIuMjM3MyAtMi4zNzUyLC00LjE2NjEgLTQuMjgxMiwtNS43NSB6IiBpZD0icGF0aDM3NTciIHN0eWxlPSJmaWxsOnVybCgjbGluZWFyR3JhZGllbnQ0MTQ5KSIvPiYjeGE7ICAgICAgPHBhdGggZD0ibSA4NzguNTUsODEzLjM4IC00LjQzNzUsMi4zNDM4IGMgMC45ODkxMywxLjE1NjggMS43OTU1LDIuNDI4NiAyLjM3NSwzLjg0MzggNC43OTc5LDExLjcxNyAtMTAuNzM2LDI5LjIzNiAtMjYuODc1LDM1Ljc4MSAtMC41MTY3NiwwLjIwOTU4IC0xLjgxMjksMC44NDA2NiAtMy40MDYyLDEuNjU2MiBsIDEzLjYyNSwtMy44NzUgYyAxNy4zMDYsLTguNDU3NiAyNy40NywtMjMuMDgyIDIzLC0zNCAtMC45MTYxNSwtMi4yMzczIC0yLjM3NTIsLTQuMTY2MSAtNC4yODEyLC01Ljc1IHoiIGlkPSJwYXRoMzc4NyIgc3R5bGU9ImZpbGw6dXJsKCNsaW5lYXJHcmFkaWVudDQyMDMpIi8+JiN4YTsgICAgICA8cGF0aCBkPSJtIDg4NC43NCw4MTEuOTYgLTQuNDM3NCwyLjM0MzggYyAwLjk4OTEzLDEuMTU2OCAxLjc5NTUsMi40Mjg2IDIuMzc1LDMuODQzOCA0Ljc5NzksMTEuNzE3IC0xMC43MzYsMjkuMjM2IC0yNi44NzUsMzUuNzgxIC0wLjUxNjc1LDAuMjA5NTggLTEuODEyOSwwLjg0MDY2IC0zLjQwNjIsMS42NTYyIGwgMTMuNjI1LC0zLjg3NSBjIDE3LjMwNiwtOC40NTc2IDI3LjQ3LC0yMy4wODIgMjMsLTM0IC0wLjkxNjE1LC0yLjIzNzMgLTIuMzc1MiwtNC4xNjYxIC00LjI4MTIsLTUuNzUgeiIgaWQ9InBhdGgzNzUyIiBzdHlsZT0iZmlsbDp1cmwoI2xpbmVhckdyYWRpZW50NDE1NSkiLz4mI3hhOyAgICAgIDxwYXRoIGQ9Im0gOTAxLjY1LDgwNy42OSAtNi4xODc0LDEuODQzOCBjIDAuOTYwMTUsMS43MTI4IDEuNjU0NSwzLjUzMjMgMi4wMzEyLDUuNDY4OCAzLjExOTQsMTYuMDM0IC0yMC45NjIsMzQuMjg0IC00My4wMzEsMzguNSAtMy4zOTUsMC42NDg2NCAtMjguODg0LDguNTc2IC0zMi4xNTgsOC44MDQ0IHYgNC4xMjUgbCA0MS40MzksLTEyLjE0OCBjIDI2LjI4NSwtNS40OTYzIDQ0Ljk0OSwtMjIuNDQ4IDQxLjg3NSwtMzguMjUgLTAuNTk1NjQsLTMuMDYxNiAtMS45NTYsLTUuODU5NSAtMy45Njg3LC04LjM0MzggeiIgaWQ9InBhdGgzNzM1IiBzdHlsZT0iZmlsbDp1cmwoI2xpbmVhckdyYWRpZW50NDIwNSkiLz4mI3hhOyAgICAgIDxwYXRoIGQ9Im0gOTAxLjY1LDgwNy42OSAtNi4xODc0LDEuODQzOCBjIDAuOTYwMTUsMS43MTI4IDEuNjU0NSwzLjUzMjMgMi4wMzEyLDUuNDY4OCAzLjExOTQsMTYuMDM0IC0yMC45NjIsMzQuMjg0IC00My4wMzEsMzguNSAtMy4zOTUsMC42NDg2NCAtMjguODg0LDguNTc2IC0zMi4xNTgsOC44MDQ0IHYgNC4xMjUgbCA0MS40MzksLTEyLjE0OCBjIDI2LjI4NSwtNS40OTYzIDQ0Ljk0OSwtMjIuNDQ4IDQxLjg3NSwtMzguMjUgLTAuNTk1NjQsLTMuMDYxNiAtMS45NTYsLTUuODU5NSAtMy45Njg3LC04LjM0MzggeiIgaWQ9InBhdGgzNzgzIiBzdHlsZT0iZmlsbDp1cmwoI2xpbmVhckdyYWRpZW50NDIwNykiLz4mI3hhOyAgICAgIDxwYXRoIGQ9Im0gODU3LjEyLDgyMi40NiAtMy45NjQxLDIuMDkzNyBjIDAuODgzNjEsMS4wMzM0IDEuNjA0LDIuMTY5NiAyLjEyMTYsMy40MzM3IDQuMjg2MSwxMC40NjcgLTkuNTkwNiwyNi4xMTcgLTI0LjAwOCwzMS45NjQgLTAuNDYxNjMsMC4xODcyMyAtMS42MTk1LDAuNzUwOTggLTMuMDQyOCwxLjQ3OTYgbCAxMi4xNzEsLTMuNDYxNiBjIDE1LjQ2LC03LjU1NTQgMjQuNTQsLTIwLjYyIDIwLjU0NiwtMzAuMzczIC0wLjgxODQyLC0xLjk5ODcgLTIuMTIxOCwtMy43MjE2IC0zLjgyNDUsLTUuMTM2NiB6IiBpZD0icGF0aDM3OTkiIHN0eWxlPSJmaWxsOnVybCgjbGluZWFyR3JhZGllbnQ0MjA5KSIvPiYjeGE7ICAgICAgPHBhdGggZD0ibSA4NDMuMzIsODI2LjAzIC0zLjk2NDEsMi4wOTM3IGMgMC44ODM2MSwxLjAzMzQgMS42MDQsMi4xNjk2IDIuMTIxNiwzLjQzMzcgNC4yODYxLDEwLjQ2NyAtOS41OTA2LDI2LjExNyAtMjQuMDA4LDMxLjk2NCAtMC40NjE2MiwwLjE4NzIzIC0xLjYxOTUsMC43NTA5OCAtMy4wNDI4LDEuNDc5NiBsIDEyLjE3MSwtMy40NjE2IGMgMTUuNDYsLTcuNTU1NCAyNC41NCwtMjAuNjIgMjAuNTQ2LC0zMC4zNzMgLTAuODE4NDIsLTEuOTk4NyAtMi4xMjE4LC0zLjcyMTYgLTMuODI0NSwtNS4xMzY2IHoiIGlkPSJwYXRoMzgwMyIgc3R5bGU9ImZpbGw6dXJsKCNsaW5lYXJHcmFkaWVudDQxNTMpIi8+JiN4YTsgICAgICA8cGF0aCBkPSJtIDIzMy4yNyw4NDUuNzIgYyA4LjI5MywtMi4wMjM0IDE1LjQ4NiwtMS40Nzg4IDE5Ljc5Nyw1Ljc4NzIgbCAtMi40OTM0LDE3Ljg5NyBjIC02Ljg3NTEsNi4xNzMyIC0xMy43NSw0Ljk1MDkgLTIwLjYyNSwwLjE1NTQzIGwgMy4zMjEyLC0yMy44MzkgeiIgaWQ9InJlY3QzODYxIiBzdHlsZT0iZmlsbDp1cmwoI2xpbmVhckdyYWRpZW50NDIxMSkiLz4mI3hhOyAgICAgIDxwYXRoIGQ9Im0gMjUzLjU0LDg0OC45OSBjIDguMTUwMiwtMS4yMTAyIDE1LjE2NywtMC41NzI4IDE4Ljg0Myw1LjUwODEgbCAtMi4zNzMxLDE3LjAzNCBjIC02LjQ4MzksMi45NzQ4IC0xMi45ODMsNS4yMDk2IC0xOS42MzEsMC4xNDc5MyBsIDMuMTYxMSwtMjIuNjkgeiIgaWQ9InBhdGgzODY0IiBzdHlsZT0iZmlsbDp1cmwoI2xpbmVhckdyYWRpZW50NDIxMykiLz4mI3hhOyAgICAgIDxwYXRoIGQ9Im0gNDAwLjM0LDg1Mi43NSBjIC0zMy40NTQsMCAtNjUuNDkyLDEuNzg5NCAtOTUuMDkzLDUuMDYyNSBsIC0zLjY1NjIsMC40MDYyNSAxLjcxODcsMy4yNSBjIDYuNjcxMSwxMi42NjQgMTYuNTYyLDIxLjExMyAyOS4wNjIsMjYuNDM4IDEyLjUwMSw1LjMyNDEgMjcuNTcyLDcuNjEyNiA0NS4wOTMsOC40Mzc1IDM1LjA0MiwxLjY0OTggNzkuOTU0LC0yLjYzMTIgMTMzLjU5LC0yIDQ5LjY1OSwwLjU4NDM4IDg5LjUwOCwxLjg3ODcgMTIxLjUzLDIuMzc1IGwgMS4xMjUsLTQuNzUgYyAtNDcuODQsLTIzLjY4IC0xMzQuMzQsLTM5LjIyIC0yMzMuMzYsLTM5LjIyIHogbSAwLDUgYyA5MS4xNjksMCAxNzEuNzUsMTMuNDc5IDIyMC4wOSwzMy43MTkgLTI5Ljk1MiwtMC41ODI0MSAtNjUuMjEyLC0xLjYwNiAtMTA5LjMxLC0yLjEyNSAtNTMuOTM3LC0wLjYzNDczIC05OC45NzYsMy42NTIyIC0xMzMuNCwyLjAzMTIgLTE3LjIxNCwtMC44MTA0NiAtMzEuNzY3LC0zLjEwNTQgLTQzLjQwNiwtOC4wNjI1IC0xMC40NTMsLTQuNDUyMSAtMTguNDg1LC0xMS4xNTQgLTI0LjUsLTIwLjkwNiAyOC4zMDcsLTIuOTgzMSA1OC43MzUsLTQuNjU2MiA5MC41MywtNC42NTYyIHoiIGlkPSJwYXRoNDAyNSIgc3R5bGU9InRleHQtaW5kZW50OjA7dGV4dC10cmFuc2Zvcm06bm9uZTtibG9jay1wcm9ncmVzc2lvbjp0YjtvcGFjaXR5OjAuOTtjb2xvcjojMDAwMDAwO2ZpbGw6IzE5MTkxOSIvPiYjeGE7ICAgICAgPHBhdGggZD0ibSAyNjAuNSw2MDcuMzggLTc3Ljc0OSwxMi40NjkgYyAtMjcuMTUsNC4zNTQyIC00OC45NDcsNDguNzczIC01MC45OTksMTA0Ljg0IDIuMDUyMyw1Ni4wNzEgMjMuODQ5LDEwMC40OSA1MC45OTksMTA0Ljg0IGwgNzcuNzQ5LDEyLjQ2OSBjIDEzLjI5NiwwIDI0LC0xMC43MDQgMjQsLTI0IHYgLTE4Ni42MiBjIDAsLTEzLjI5NiAtMTAuNzA0LC0yNCAtMjQsLTI0IHoiIGlkPSJyZWN0Mjg2NCIgc3R5bGU9Im9wYWNpdHk6MC45O2ZpbGw6IzI2MjYyNjtmaWxsLW9wYWNpdHk6MC45OTYwNzk5OTtzdHJva2U6IzE5MTkxOTtzdHJva2Utd2lkdGg6NSIvPiYjeGE7ICAgICAgPHBhdGggZD0ibSA2OTEuOTYsNTczLjE2IGMgLTIuOTY5MiwwIC01Ljg5MzMsMC4zMzIxNSAtOC43ODEyLDAuOTY4NzUgLTAuMDEwNCwtMC4wMSAtMC4wMjA4LC0wLjAyMSAtMC4wMzEyLC0wLjAzMTIgbCAtNjMuODQzLDEyLjMxMiBjIC0xNy43MjgsNi42MDQ3IC0zMiwxNC4yNzIgLTMyLDMyIHYgMjEyLjU2IGMgMCwxNy43MjggMTQuMjcyLDI1LjM5NSAzMiwzMiBsIDYzLjg0MywxMi4zMTIgYyAwLjAxMDUsLTAuMDEwMiAwLjAyMDgsLTAuMDIxMSAwLjAzMTIsLTAuMDMxMiAyLjg4NzksMC42MzY2IDUuODEyLDAuOTY4NzUgOC43ODEyLDAuOTY4NzUgNDUuMzk1LDAgODIuMTk4LC01Ny4zNjMgODIuMzEyLC0xNTEuNTMgLTAuMTE0MDgsLTk0LjE2OSAtMzYuOTE2LC0xNTEuNTMgLTgyLjMxMiwtMTUxLjUzIHoiIGlkPSJwYXRoMzcwMyIgc3R5bGU9Im9wYWNpdHk6MC45O2ZpbGw6IzI2MjYyNjtmaWxsLW9wYWNpdHk6MC45OTYwNzk5OTtzdHJva2U6IzE5MTkxOTtzdHJva2Utd2lkdGg6NSIvPiYjeGE7ICAgICAgPHBhdGggZD0ibSA0MDAuMzQsNTk0LjE1IGMgLTMzLjM2NCwwIC02NS4zMDcsLTEuOCAtOTQuODExLC01LjA2MjUgMjUuNjYsLTQ4LjcxNCA5Ny45ODUsLTMwLjI2NSAyMDUuNTYsLTMxLjUzMSA0OS42ODYsLTAuNTg0NzEgODkuNTQzLC0xLjg3OTMgMTIxLjUzLC0yLjM3NSAtNDcuMTYsMjMuMzM0IC0xMzMuNTMsMzguOTY5IC0yMzIuMjgsMzguOTY5IHoiIGlkPSJwYXRoNDE1NyIgc3R5bGU9Im9wYWNpdHk6MC45O2ZpbGw6IzI2MjYyNjtmaWxsLW9wYWNpdHk6MC45OTYwNzk5OSIvPiYjeGE7ICAgICAgPHBhdGggZD0ibSA0MDAuMzQsNTk0LjE1IGMgLTMuMjA2NCwwIC02LjM4MzEsLTAuMDI5NSAtOS41NjI0LC0wLjA2MjUgMC44MTgyNSwtMTYuMTcxIDYuNDI4MSwtMzAuMjU3IDE0LjU5NCwtMzguODQ0IDQuNjcxNCwwLjA3NTYgOS40OTUxLDAuMTk2NTUgMTQuNDM3LDAuMzQzNzUgLTguNTY1Nyw4LjE5MjMgLTE0LjU5MywyMi4yMjggLTE1LjcxOSwzOC41NjIgLTEuMjUxMiwwLjAwNSAtMi40OTQ3LDAgLTMuNzUsMCB6IiBpZD0icGF0aDQxNTkiIHN0eWxlPSJvcGFjaXR5OjAuNTtmaWxsLW9wYWNpdHk6MC45OTYwNzk5OSIvPiYjeGE7ICAgICAgPHBhdGggZD0ibSA5ODkuMDIsNjIxLjg5IC01LjA5MzcsLTAuNTkzNzUgYyAtMjEuNTQ1LC0yLjUxMjcgLTM3LjY4OCwtMjUuOTc5IC0zOS4yODEsLTU0LjUzMSBsIC0wLjM3NDk5LC03LjEyNSA1LjI0OTksNC44NDM4IGMgMTUuODg5LDE0LjY4IDI4LjMwMywzMi41MDcgMzcuNDA2LDUyLjc1IGwgMi4wOTM3LDQuNjU2MiB6IiBpZD0icGF0aDQxNjEiIHN0eWxlPSJ0ZXh0LWluZGVudDowO3RleHQtdHJhbnNmb3JtOm5vbmU7YmxvY2stcHJvZ3Jlc3Npb246dGI7Y29sb3I6IzAwMDAwMDtmaWxsOiMyMTIxMjE7c3Ryb2tlOiMxOTE5MTk7c3Ryb2tlLXdpZHRoOjUiLz4mI3hhOyAgICAgIDxwYXRoIGQ9Im0gNzgzLjQ3LDYxMC44OSBjIDAsMCA3OS42NzcsMjIuNTk2IDEwNS4zOCwzMS45ODIgMjYuODM5LDkuODAxOCA5OC44NTksMzkuMTQ2IDk4Ljg1OSwzOS4xNDYgMCwwIC04Ljc0MDksLTQyLjQ3IC0zMC40ODMsLTU3LjkxOCAtNzcuMjMsLTU0Ljg3IC0yMzIuNjksLTUzLjg2IC0yMzIuNjksLTUzLjg2IiBpZD0icGF0aDQxNjMiIHN0eWxlPSJvcGFjaXR5OjAuNTtmaWxsOm5vbmU7c3Ryb2tlOiMyOTI5Mjk7c3Ryb2tlLXdpZHRoOjY7c3Ryb2tlLWxpbmVjYXA6cm91bmQ7c3Ryb2tlLWxpbmVqb2luOnJvdW5kIi8+JiN4YTsgICAgICA8cGF0aCBkPSJtIDg2OS45Nyw2MzEuNTUgLTQuNDM3NCwtMi4zNDM4IGMgMC45ODkxMiwtMS4xNTY4IDEuNzk1NSwtMi40Mjg2IDIuMzc1LC0zLjg0MzggNC43OTc5LC0xMS43MTcgLTEwLjczNiwtMjkuMjM2IC0yNi44NzUsLTM1Ljc4MSAtMC41MTY3NSwtMC4yMDk1OCAtMS44MTI5LC0wLjg0MDY2IC0zLjQwNjIsLTEuNjU2MiBsIDEzLjYyNSwzLjg3NSBjIDE3LjMwNiw4LjQ1NzYgMjcuNDcsMjMuMDgyIDIzLDM0IC0wLjkxNjE1LDIuMjM3MyAtMi4zNzUyLDQuMTY2MSAtNC4yODEyLDUuNzUgeiIgaWQ9InBhdGg0MTY1IiBzdHlsZT0iZmlsbDp1cmwoI2xpbmVhckdyYWRpZW50NDE4NSkiLz4mI3hhOyAgICAgIDxwYXRoIGQ9Im0gODc4LjU1LDYzNi4wMSAtNC40Mzc1LC0yLjM0MzggYyAwLjk4OTEzLC0xLjE1NjggMS43OTU1LC0yLjQyODYgMi4zNzUsLTMuODQzOCA0Ljc5NzksLTExLjcxNyAtMTAuNzM2LC0yOS4yMzYgLTI2Ljg3NSwtMzUuNzgxIC0wLjUxNjc2LC0wLjIwOTU4IC0xLjgxMjksLTAuODQwNjYgLTMuNDA2MiwtMS42NTYyIGwgMTMuNjI1LDMuODc1IGMgMTcuMzA2LDguNDU3NiAyNy40NywyMy4wODIgMjMsMzQgLTAuOTE2MTUsMi4yMzczIC0yLjM3NTIsNC4xNjYxIC00LjI4MTIsNS43NSB6IiBpZD0icGF0aDQxNjciIHN0eWxlPSJmaWxsOnVybCgjbGluZWFyR3JhZGllbnQ0MTg3KSIvPiYjeGE7ICAgICAgPHBhdGggZD0ibSA4ODQuNzQsNjM3LjQyIC00LjQzNzQsLTIuMzQzOCBjIDAuOTg5MTMsLTEuMTU2OCAxLjc5NTUsLTIuNDI4NiAyLjM3NSwtMy44NDM4IDQuNzk3OSwtMTEuNzE3IC0xMC43MzYsLTI5LjIzNiAtMjYuODc1LC0zNS43ODEgLTAuNTE2NzUsLTAuMjA5NTggLTEuODEyOSwtMC44NDA2NiAtMy40MDYyLC0xLjY1NjIgbCAxMy42MjUsMy44NzUgYyAxNy4zMDYsOC40NTc2IDI3LjQ3LDIzLjA4MiAyMywzNCAtMC45MTYxNSwyLjIzNzMgLTIuMzc1Miw0LjE2NjEgLTQuMjgxMiw1Ljc1IHoiIGlkPSJwYXRoNDE2OSIgc3R5bGU9ImZpbGw6dXJsKCNsaW5lYXJHcmFkaWVudDQxODkpIi8+JiN4YTsgICAgICA8cGF0aCBkPSJtIDkwMS42NSw2NDEuNyAtNi4xODc0LC0xLjg0MzggYyAwLjk2MDE1LC0xLjcxMjggMS42NTQ1LC0zLjUzMjMgMi4wMzEyLC01LjQ2ODggMy4xMTk0LC0xNi4wMzQgLTIwLjk2MiwtMzQuMjg0IC00My4wMzEsLTM4LjUgLTMuMzk1LC0wLjY0ODY0IC0yOC44ODQsLTguNTc2IC0zMi4xNTgsLTguODA0NCB2IC00LjEyNSBsIDQxLjQzOSwxMi4xNDggYyAyNi4yODUsNS40OTYzIDQ0Ljk0OSwyMi40NDggNDEuODc1LDM4LjI1IC0wLjU5NTY0LDMuMDYxNiAtMS45NTYsNS44NTk1IC0zLjk2ODcsOC4zNDM4IHoiIGlkPSJwYXRoNDE3MSIgc3R5bGU9ImZpbGw6dXJsKCNsaW5lYXJHcmFkaWVudDQxOTEpIi8+JiN4YTsgICAgICA8cGF0aCBkPSJtIDkwMS42NSw2NDEuNyAtNi4xODc0LC0xLjg0MzggYyAwLjk2MDE1LC0xLjcxMjggMS42NTQ1LC0zLjUzMjMgMi4wMzEyLC01LjQ2ODggMy4xMTk0LC0xNi4wMzQgLTIwLjk2MiwtMzQuMjg0IC00My4wMzEsLTM4LjUgLTMuMzk1LC0wLjY0ODY0IC0yOC44ODQsLTguNTc2IC0zMi4xNTgsLTguODA0NCB2IC00LjEyNSBsIDQxLjQzOSwxMi4xNDggYyAyNi4yODUsNS40OTYzIDQ0Ljk0OSwyMi40NDggNDEuODc1LDM4LjI1IC0wLjU5NTY0LDMuMDYxNiAtMS45NTYsNS44NTk1IC0zLjk2ODcsOC4zNDM4IHoiIGlkPSJwYXRoNDE3MyIgc3R5bGU9ImZpbGw6dXJsKCNsaW5lYXJHcmFkaWVudDQxOTMpIi8+JiN4YTsgICAgICA8cGF0aCBkPSJtIDg1Ny4xMiw2MjYuOTMgLTMuOTY0MSwtMi4wOTM3IGMgMC44ODM2MSwtMS4wMzM0IDEuNjA0LC0yLjE2OTYgMi4xMjE2LC0zLjQzMzcgNC4yODYxLC0xMC40NjcgLTkuNTkwNiwtMjYuMTE3IC0yNC4wMDgsLTMxLjk2NCAtMC40NjE2MywtMC4xODcyMyAtMS42MTk1LC0wLjc1MDk4IC0zLjA0MjgsLTEuNDc5NiBsIDEyLjE3MSwzLjQ2MTYgYyAxNS40Niw3LjU1NTQgMjQuNTQsMjAuNjIgMjAuNTQ2LDMwLjM3MyAtMC44MTg0MiwxLjk5ODcgLTIuMTIxOCwzLjcyMTYgLTMuODI0NSw1LjEzNjYgeiIgaWQ9InBhdGg0MTc1IiBzdHlsZT0iZmlsbDp1cmwoI2xpbmVhckdyYWRpZW50NDE5NSkiLz4mI3hhOyAgICAgIDxwYXRoIGQ9Im0gODQzLjMyLDYyMy4zNiAtMy45NjQxLC0yLjA5MzcgYyAwLjg4MzYxLC0xLjAzMzQgMS42MDQsLTIuMTY5NiAyLjEyMTYsLTMuNDMzNyA0LjI4NjEsLTEwLjQ2NyAtOS41OTA2LC0yNi4xMTcgLTI0LjAwOCwtMzEuOTY0IC0wLjQ2MTYyLC0wLjE4NzIzIC0xLjYxOTUsLTAuNzUwOTggLTMuMDQyOCwtMS40Nzk2IGwgMTIuMTcxLDMuNDYxNiBjIDE1LjQ2LDcuNTU1NCAyNC41NCwyMC42MiAyMC41NDYsMzAuMzczIC0wLjgxODQyLDEuOTk4NyAtMi4xMjE4LDMuNzIxNiAtMy44MjQ1LDUuMTM2NiB6IiBpZD0icGF0aDQxNzciIHN0eWxlPSJmaWxsOnVybCgjbGluZWFyR3JhZGllbnQ0MTk3KSIvPiYjeGE7ICAgICAgPHBhdGggZD0ibSAyMzMuMjcsNjAzLjY2IGMgOC4yOTMsMi4wMjM0IDE1LjQ4NiwxLjQ3ODggMTkuNzk3LC01Ljc4NzIgbCAtMi40OTM0LC0xNy44OTcgYyAtNi44NzUxLC02LjE3MzIgLTEzLjc1LC00Ljk1MDkgLTIwLjYyNSwtMC4xNTU0MyBsIDMuMzIxMiwyMy44MzkgeiIgaWQ9InBhdGg0MTc5IiBzdHlsZT0iZmlsbDp1cmwoI2xpbmVhckdyYWRpZW50NDE5OSkiLz4mI3hhOyAgICAgIDxwYXRoIGQ9Im0gMjUzLjU0LDYwMC40IGMgOC4xNTAyLDEuMjEwMiAxNS4xNjcsMC41NzI4IDE4Ljg0MywtNS41MDgxIGwgLTIuMzczMSwtMTcuMDM0IGMgLTYuNDgzOSwtMi45NzQ4IC0xMi45ODMsLTUuMjA5NiAtMTkuNjMxLC0wLjE0NzkzIGwgMy4xNjExLDIyLjY5IHoiIGlkPSJwYXRoNDE4MSIgc3R5bGU9ImZpbGw6dXJsKCNsaW5lYXJHcmFkaWVudDQyMDEpIi8+JiN4YTsgICAgICA8cGF0aCBkPSJtIDQwMC4zNCw1OTYuNjQgYyAtMzMuNDU0LDAgLTY1LjQ5MiwtMS43ODk0IC05NS4wOTMsLTUuMDYyNSBsIC0zLjY1NjIsLTAuNDA2MjUgMS43MTg3LC0zLjI1IGMgNi42NzExLC0xMi42NjQgMTYuNTYyLC0yMS4xMTMgMjkuMDYyLC0yNi40MzggMTIuNTAxLC01LjMyNDEgMjcuNTcyLC03LjYxMjYgNDUuMDkzLC04LjQzNzUgMzUuMDQyLC0xLjY0OTggNzkuOTU0LDIuNjMxMiAxMzMuNTksMiA0OS42NTksLTAuNTg0MzggODkuNTA4LC0xLjg3ODcgMTIxLjUzLC0yLjM3NSBsIDEuMTI1LDQuNzUgYyAtNDcuODQ5LDIzLjY3NSAtMTM0LjM2LDM5LjIxOSAtMjMzLjM3LDM5LjIxOSB6IG0gMCwtNSBjIDkxLjE2OSwwIDE3MS43NSwtMTMuNDc5IDIyMC4wOSwtMzMuNzE5IC0yOS45NTIsMC41ODI0MSAtNjUuMjEyLDEuNjA2IC0xMDkuMzEsMi4xMjUgLTUzLjkzNywwLjYzNDczIC05OC45NzYsLTMuNjUyMiAtMTMzLjQsLTIuMDMxMiAtMTcuMjE0LDAuODEwNDYgLTMxLjc2NywzLjEwNTQgLTQzLjQwNiw4LjA2MjUgLTEwLjQ1Myw0LjQ1MjEgLTE4LjQ4NSwxMS4xNTQgLTI0LjUsMjAuOTA2IDI4LjMwNywyLjk4MzEgNTguNzM1LDQuNjU2MiA5MC41Myw0LjY1NjIgeiIgaWQ9InBhdGg0MTgzIiBzdHlsZT0idGV4dC1pbmRlbnQ6MDt0ZXh0LXRyYW5zZm9ybTpub25lO2Jsb2NrLXByb2dyZXNzaW9uOnRiO29wYWNpdHk6MC45O2NvbG9yOiMwMDAwMDA7ZmlsbDojMTkxOTE5Ii8+JiN4YTsgICAgPC9nPiYjeGE7ICA8L2c+JiN4YTsgIDxtZXRhZGF0YSBpZD0ibWV0YWRhdGE2MCI+JiN4YTsgICAgPHJkZjpSREY+JiN4YTsgICAgICA8Y2M6V29yaz4mI3hhOyAgICAgICAgPGRjOmZvcm1hdD5pbWFnZS9zdmcreG1sPC9kYzpmb3JtYXQ+JiN4YTsgICAgICAgIDxkYzp0eXBlIHJkZjpyZXNvdXJjZT0iaHR0cDovL3B1cmwub3JnL2RjL2RjbWl0eXBlL1N0aWxsSW1hZ2UiLz4mI3hhOyAgICAgICAgPGNjOmxpY2Vuc2UgcmRmOnJlc291cmNlPSJodHRwOi8vY3JlYXRpdmVjb21tb25zLm9yZy9saWNlbnNlcy9wdWJsaWNkb21haW4vIi8+JiN4YTsgICAgICAgIDxkYzpwdWJsaXNoZXI+JiN4YTsgICAgICAgICAgPGNjOkFnZW50IHJkZjphYm91dD0iaHR0cDovL29wZW5jbGlwYXJ0Lm9yZy8iPiYjeGE7ICAgICAgICAgICAgPGRjOnRpdGxlPk9wZW5jbGlwYXJ0PC9kYzp0aXRsZT4mI3hhOyAgICAgICAgICA8L2NjOkFnZW50PiYjeGE7ICAgICAgICA8L2RjOnB1Ymxpc2hlcj4mI3hhOyAgICAgICAgPGRjOnRpdGxlPlJlZCBDYXIgLSBUb3AgVmlldzwvZGM6dGl0bGU+JiN4YTsgICAgICAgIDxkYzpkYXRlPjIwMTAtMDUtMTlUMTU6MDI6MTI8L2RjOmRhdGU+JiN4YTsgICAgICAgIDxkYzpkZXNjcmlwdGlvbj5JIHdhcyB0aGlua2luZyBvZiBUcm9waHkgKCBodHRwOi8vdHJvcGh5LnNvdXJjZWZvcmdlLm5ldC9pbmRleC5waHA/Ym9keT1zY3JlZW5zaG90cyApIHdoZW4gcmVtaXhpbmcgdGhpcyBvbmUgOik8L2RjOmRlc2NyaXB0aW9uPiYjeGE7ICAgICAgICA8ZGM6c291cmNlPmh0dHA6Ly9vcGVuY2xpcGFydC5vcmcvZGV0YWlsLzYxMjAxL3JlZC1yYWNpbmctY2FyLXRvcC12aWV3LWJ5LXF1Ym9kdXA8L2RjOnNvdXJjZT4mI3hhOyAgICAgICAgPGRjOmNyZWF0b3I+JiN4YTsgICAgICAgICAgPGNjOkFnZW50PiYjeGE7ICAgICAgICAgICAgPGRjOnRpdGxlPnF1Ym9kdXA8L2RjOnRpdGxlPiYjeGE7ICAgICAgICAgIDwvY2M6QWdlbnQ+JiN4YTsgICAgICAgIDwvZGM6Y3JlYXRvcj4mI3hhOyAgICAgICAgPGRjOnN1YmplY3Q+JiN4YTsgICAgICAgICAgPHJkZjpCYWc+JiN4YTsgICAgICAgICAgICA8cmRmOmxpPmNhcjwvcmRmOmxpPiYjeGE7ICAgICAgICAgICAgPHJkZjpsaT5jbGlwIGFydDwvcmRmOmxpPiYjeGE7ICAgICAgICAgICAgPHJkZjpsaT5jbGlwYXJ0PC9yZGY6bGk+JiN4YTsgICAgICAgICAgICA8cmRmOmxpPmdhbWU8L3JkZjpsaT4mI3hhOyAgICAgICAgICAgIDxyZGY6bGk+Z2FtZSBzcHJpdGU8L3JkZjpsaT4mI3hhOyAgICAgICAgICAgIDxyZGY6bGk+cmFjaW5nPC9yZGY6bGk+JiN4YTsgICAgICAgICAgICA8cmRmOmxpPnJhY2luZyBjYXI8L3JkZjpsaT4mI3hhOyAgICAgICAgICAgIDxyZGY6bGk+cmVkPC9yZGY6bGk+JiN4YTsgICAgICAgICAgICA8cmRmOmxpPnJlZCBjYXI8L3JkZjpsaT4mI3hhOyAgICAgICAgICAgIDxyZGY6bGk+c2ltcGxlPC9yZGY6bGk+JiN4YTsgICAgICAgICAgICA8cmRmOmxpPnNpbXBsZSBjYXI8L3JkZjpsaT4mI3hhOyAgICAgICAgICAgIDxyZGY6bGk+c3ByaXRlPC9yZGY6bGk+JiN4YTsgICAgICAgICAgICA8cmRmOmxpPnRyYW5zcG9ydDwvcmRmOmxpPiYjeGE7ICAgICAgICAgICAgPHJkZjpsaT50cmFuc3BvcnRhdGlvbjwvcmRmOmxpPiYjeGE7ICAgICAgICAgICAgPHJkZjpsaT50cmF2ZWw8L3JkZjpsaT4mI3hhOyAgICAgICAgICAgIDxyZGY6bGk+dmlkZW8gZ2FtZTwvcmRmOmxpPiYjeGE7ICAgICAgICAgICAgPHJkZjpsaT52aWRlbyBnYW1lIGFydDwvcmRmOmxpPiYjeGE7ICAgICAgICAgICAgPHJkZjpsaT52aWRlbyBnYW1lIHNwcml0ZTwvcmRmOmxpPiYjeGE7ICAgICAgICAgIDwvcmRmOkJhZz4mI3hhOyAgICAgICAgPC9kYzpzdWJqZWN0PiYjeGE7ICAgICAgPC9jYzpXb3JrPiYjeGE7ICAgICAgPGNjOkxpY2Vuc2UgcmRmOmFib3V0PSJodHRwOi8vY3JlYXRpdmVjb21tb25zLm9yZy9saWNlbnNlcy9wdWJsaWNkb21haW4vIj4mI3hhOyAgICAgICAgPGNjOnBlcm1pdHMgcmRmOnJlc291cmNlPSJodHRwOi8vY3JlYXRpdmVjb21tb25zLm9yZy9ucyNSZXByb2R1Y3Rpb24iLz4mI3hhOyAgICAgICAgPGNjOnBlcm1pdHMgcmRmOnJlc291cmNlPSJodHRwOi8vY3JlYXRpdmVjb21tb25zLm9yZy9ucyNEaXN0cmlidXRpb24iLz4mI3hhOyAgICAgICAgPGNjOnBlcm1pdHMgcmRmOnJlc291cmNlPSJodHRwOi8vY3JlYXRpdmVjb21tb25zLm9yZy9ucyNEZXJpdmF0aXZlV29ya3MiLz4mI3hhOyAgICAgIDwvY2M6TGljZW5zZT4mI3hhOyAgICA8L3JkZjpSREY+JiN4YTsgIDwvbWV0YWRhdGE+JiN4YTs8L3N2Zz4=;" parent="1" vertex="1">
                    <mxGeometry x="100" y="321" width="79" height="39" as="geometry"/>
                </mxCell>
                <mxCell id="47" value="" style="endArrow=classic;startArrow=classic;html=1;fontColor=#050505;strokeColor=#050505;" edge="1" parent="1">
                    <mxGeometry width="50" height="50" relative="1" as="geometry">
                        <mxPoint x="120" y="480" as="sourcePoint"/>
                        <mxPoint x="360" y="480" as="targetPoint"/>
                    </mxGeometry>
                </mxCell>
                <mxCell id="48" value="colision check" style="text;html=1;resizable=0;points=[];autosize=1;align=left;verticalAlign=top;spacingTop=-4;fontColor=#050505;fontSize=14;" vertex="1" parent="1">
                    <mxGeometry x="192" y="490" width="100" height="20" as="geometry"/>
                </mxCell>
                <mxCell id="2" value="" style="endArrow=none;html=1;entryX=0.336;entryY=-0.008;entryDx=0;entryDy=0;entryPerimeter=0;strokeWidth=5;strokeColor=#FFFFFF;" parent="1" target="5" edge="1">
                    <mxGeometry width="50" height="50" relative="1" as="geometry">
                        <mxPoint x="61" y="360" as="sourcePoint"/>
                        <mxPoint x="540" y="375" as="targetPoint"/>
                    </mxGeometry>
                </mxCell>
                <mxCell id="27" value="" style="rounded=0;whiteSpace=wrap;html=1;strokeColor=#3333FF;fillColor=none;" parent="1" vertex="1">
                    <mxGeometry x="99.5" y="321" width="80" height="39" as="geometry"/>
                </mxCell>
                <mxCell id="28" value="" style="rounded=0;whiteSpace=wrap;html=1;strokeColor=#3333FF;fillColor=none;" parent="1" vertex="1">
                    <mxGeometry x="177" y="321" width="80" height="39" as="geometry"/>
                </mxCell>
                <mxCell id="31" value="" style="rounded=0;whiteSpace=wrap;html=1;strokeColor=#3333FF;fillColor=none;rotation=20;" parent="1" vertex="1">
                    <mxGeometry x="222" y="326.5" width="80" height="39" as="geometry"/>
                </mxCell>
                <mxCell id="44" value="" style="endArrow=none;html=1;strokeColor=#020203;strokeWidth=2;entryX=1;entryY=0.5;entryDx=0;entryDy=0;" parent="1" source="43" edge="1" target="28">
                    <mxGeometry width="50" height="50" relative="1" as="geometry">
                        <mxPoint x="272" y="285" as="sourcePoint"/>
                        <mxPoint x="262" y="335" as="targetPoint"/>
                    </mxGeometry>
                </mxCell>
                <mxCell id="30" value="" style="rounded=0;whiteSpace=wrap;html=1;strokeColor=#3333FF;fillColor=none;rotation=30;" parent="1" vertex="1">
                    <mxGeometry x="262" y="346" width="80" height="39" as="geometry"/>
                </mxCell>
                <mxCell id="37" value="" style="rounded=0;whiteSpace=wrap;html=1;strokeColor=#3333FF;fillColor=none;rotation=15;" parent="1" vertex="1">
                    <mxGeometry x="300" y="365.5" width="80" height="39" as="geometry"/>
                </mxCell>
            </root>
        </mxGraphModel>
    </diagram>
</mxfile>